<svg width="161" height="28" viewBox="0 0 161 28" fill="none" xmlns="http://www.w3.org/2000/svg">
<path fill-rule="evenodd" clip-rule="evenodd" d="M5.16285 0L21.5182 9.44011C20.6263 11.0229 17.8363 14.2939 13.8116 14.716C16.2234 16.4307 17.5989 19.2194 17.7497 21.0848C17.9004 22.9502 18.0135 24.9098 16.393 28C14.7349 27.0956 4.77344 21.3423 0 18.5787C0.640646 17.1655 2.92436 14.4371 6.5572 13.5478C8.20027 14.6934 8.74922 15.0929 8.81831 15.1494C7.65007 15.4069 4.94051 16.3176 3.44818 17.9004C4.98573 18.8048 11.9901 22.8371 15.3001 24.7402C15.79 23.013 15.9596 18.997 12.7187 16.751C12.1074 16.3274 11.4867 15.9205 10.8718 15.5174C7.41131 13.2489 4.13365 11.1003 3.74966 6.76447C3.50471 3.25976 4.31494 1.6393 5.16285 0ZM10.9848 12.7564C12.6053 12.7375 16.3022 12.1949 18.1261 10.175C14.3878 7.97415 8.65463 4.66038 6.25535 3.27859C5.58329 5.36383 5.58832 10.1787 10.9848 12.7564Z" fill="#BA4A6A"/>
<path d="M36.4553 26.4806C35.2401 26.4806 34.1792 26.2781 33.2726 25.873C32.3853 25.4679 31.6716 24.9085 31.1316 24.1949C30.6108 23.4619 30.2925 22.6035 30.1768 21.6198H32.665C32.7615 22.1213 32.964 22.5842 33.2726 23.0086C33.5812 23.4329 33.996 23.7801 34.5168 24.0502C35.0568 24.3009 35.7127 24.4263 36.4842 24.4263C37.1593 24.4263 37.7187 24.3299 38.1624 24.137C38.606 23.9248 38.9339 23.6451 39.1461 23.2979C39.3776 22.9507 39.4933 22.5746 39.4933 22.1695C39.4933 21.5716 39.3486 21.1183 39.0593 20.8097C38.7892 20.501 38.3842 20.2599 37.8441 20.0863C37.304 19.8934 36.6482 19.7295 35.8766 19.5945C35.2401 19.4787 34.6132 19.3244 33.996 19.1315C33.3787 18.9386 32.829 18.6879 32.3468 18.3793C31.8645 18.0513 31.4788 17.6559 31.1894 17.193C30.9194 16.7301 30.7844 16.161 30.7844 15.4859C30.7844 14.6565 30.9965 13.9235 31.4209 13.287C31.8452 12.6312 32.4528 12.12 33.2437 11.7535C34.0538 11.387 34.9893 11.2038 36.0502 11.2038C37.6126 11.2038 38.876 11.5799 39.8405 12.3322C40.8049 13.0845 41.374 14.1743 41.5476 15.6017H39.1461C39.0496 14.8687 38.7314 14.2997 38.1913 13.8946C37.6705 13.4702 36.9472 13.2581 36.0213 13.2581C35.1147 13.2581 34.4203 13.4413 33.9381 13.8078C33.4752 14.1743 33.2437 14.6565 33.2437 15.2545C33.2437 15.6402 33.3691 15.9874 33.6198 16.2961C33.8899 16.5854 34.2756 16.8361 34.7772 17.0483C35.298 17.2605 35.9345 17.4341 36.6868 17.5691C37.6512 17.7427 38.5288 17.9742 39.3197 18.2635C40.1105 18.5529 40.7471 18.9869 41.2293 19.5655C41.7308 20.1249 41.9816 20.9254 41.9816 21.967C41.9816 22.8736 41.7501 23.6644 41.2872 24.3395C40.8435 25.0146 40.207 25.5451 39.3776 25.9309C38.5481 26.2973 37.574 26.4806 36.4553 26.4806Z" fill="white"/>
<path d="M49.6475 26.4806C48.4709 26.4806 47.4872 26.2781 46.6963 25.873C45.9055 25.4486 45.3172 24.8989 44.9314 24.2238C44.5456 23.5294 44.3527 22.7771 44.3527 21.967C44.3527 20.9833 44.6035 20.1538 45.105 19.4787C45.6258 18.7843 46.3491 18.2635 47.275 17.9163C48.2202 17.5498 49.3293 17.3666 50.6023 17.3666H54.4505C54.4505 16.46 54.3058 15.7077 54.0165 15.1098C53.7464 14.4925 53.3414 14.0296 52.8013 13.721C52.2805 13.4124 51.6246 13.2581 50.8338 13.2581C49.9079 13.2581 49.1074 13.4895 48.4323 13.9525C47.7572 14.4154 47.3425 15.1001 47.1882 16.0067H44.6999C44.8157 14.9651 45.1629 14.0971 45.7415 13.4027C46.3395 12.689 47.0918 12.1489 47.9983 11.7825C48.9049 11.3967 49.8501 11.2038 50.8338 11.2038C52.184 11.2038 53.3028 11.4545 54.1901 11.9561C55.0966 12.4383 55.7718 13.123 56.2154 14.0103C56.659 14.8783 56.8809 15.9103 56.8809 17.1062V26.1334H54.7109L54.5662 23.5583C54.3733 23.9634 54.1226 24.3492 53.8139 24.7157C53.5246 25.0629 53.1774 25.3715 52.7723 25.6415C52.3673 25.8923 51.9043 26.0948 51.3835 26.2491C50.882 26.4034 50.3034 26.4806 49.6475 26.4806ZM50.0237 24.4263C50.6988 24.4263 51.3064 24.2913 51.8465 24.0213C52.4058 23.7319 52.8784 23.3461 53.2642 22.8639C53.65 22.3624 53.9393 21.8127 54.1322 21.2147C54.3444 20.6168 54.4505 19.9899 54.4505 19.3341V19.2473H50.8049C49.8597 19.2473 49.0978 19.363 48.5191 19.5945C47.9405 19.8066 47.5258 20.1153 47.275 20.5203C47.0242 20.9061 46.8989 21.3497 46.8989 21.8513C46.8989 22.3721 47.0146 22.8253 47.2461 23.2111C47.4968 23.5969 47.8537 23.8959 48.3166 24.1081C48.7988 24.3202 49.3678 24.4263 50.0237 24.4263Z" fill="white"/>
<path d="M64.807 26.4806C63.6304 26.4806 62.6467 26.2781 61.8558 25.873C61.065 25.4486 60.4767 24.8989 60.0909 24.2238C59.7051 23.5294 59.5122 22.7771 59.5122 21.967C59.5122 20.9833 59.763 20.1538 60.2645 19.4787C60.7853 18.7843 61.5086 18.2635 62.4345 17.9163C63.3796 17.5498 64.4888 17.3666 65.7618 17.3666H69.61C69.61 16.46 69.4653 15.7077 69.176 15.1098C68.9059 14.4925 68.5008 14.0296 67.9608 13.721C67.44 13.4124 66.7841 13.2581 65.9933 13.2581C65.0674 13.2581 64.2669 13.4895 63.5918 13.9525C62.9167 14.4154 62.502 15.1001 62.3477 16.0067H59.8594C59.9752 14.9651 60.3224 14.0971 60.901 13.4027C61.499 12.689 62.2512 12.1489 63.1578 11.7825C64.0644 11.3967 65.0096 11.2038 65.9933 11.2038C67.3435 11.2038 68.4623 11.4545 69.3496 11.9561C70.2561 12.4383 70.9312 13.123 71.3749 14.0103C71.8185 14.8783 72.0404 15.9103 72.0404 17.1062V26.1334H69.8704L69.7257 23.5583C69.5328 23.9634 69.282 24.3492 68.9734 24.7157C68.6841 25.0629 68.3369 25.3715 67.9318 25.6415C67.5268 25.8923 67.0638 26.0948 66.543 26.2491C66.0415 26.4034 65.4628 26.4806 64.807 26.4806ZM65.1832 24.4263C65.8583 24.4263 66.4659 24.2913 67.006 24.0213C67.5653 23.7319 68.0379 23.3461 68.4237 22.8639C68.8095 22.3624 69.0988 21.8127 69.2917 21.2147C69.5039 20.6168 69.61 19.9899 69.61 19.3341V19.2473H65.9644C65.0192 19.2473 64.2573 19.363 63.6786 19.5945C63.1 19.8066 62.6852 20.1153 62.4345 20.5203C62.1837 20.9061 62.0584 21.3497 62.0584 21.8513C62.0584 22.3721 62.1741 22.8253 62.4056 23.2111C62.6563 23.5969 63.0132 23.8959 63.4761 24.1081C63.9583 24.3202 64.5273 24.4263 65.1832 24.4263Z" fill="white"/>
<path d="M80.5547 26.1334C79.6867 26.1334 78.9344 25.9984 78.2979 25.7283C77.6613 25.4583 77.1695 25.005 76.8223 24.3685C76.4944 23.7126 76.3304 22.835 76.3304 21.7355V13.6053H73.7843V11.551H76.3304L76.6487 8.02112H78.7608V11.551H82.9851V13.6053H78.7608V21.7355C78.7608 22.6421 78.944 23.2593 79.3105 23.5873C79.677 23.8959 80.3232 24.0502 81.2491 24.0502H82.8115V26.1334H80.5547Z" fill="white"/>
<path d="M85.5775 26.1334V5.30139H88.0079V14.0103C88.4902 13.1423 89.1653 12.4576 90.0333 11.9561C90.9206 11.4545 91.885 11.2038 92.9266 11.2038C94.0454 11.2038 95.0195 11.4353 95.8489 11.8982C96.6783 12.3418 97.3148 13.0266 97.7585 13.9525C98.2021 14.8783 98.4239 16.0453 98.4239 17.4534V26.1334H96.0225V17.7138C96.0225 16.2478 95.7139 15.1484 95.0966 14.4154C94.4794 13.6631 93.5824 13.287 92.4058 13.287C91.5764 13.287 90.8241 13.4895 90.149 13.8946C89.4932 14.2997 88.9724 14.8783 88.5866 15.6306C88.2008 16.3829 88.0079 17.3087 88.0079 18.4082V26.1334H85.5775Z" fill="white"/>
<path d="M103.088 26.2781C102.606 26.2781 102.201 26.1237 101.873 25.8151C101.564 25.4872 101.41 25.0918 101.41 24.6289C101.41 24.1659 101.564 23.7801 101.873 23.4715C102.201 23.1436 102.606 22.9797 103.088 22.9797C103.57 22.9797 103.965 23.1436 104.274 23.4715C104.583 23.7801 104.737 24.1659 104.737 24.6289C104.737 25.0918 104.583 25.4872 104.274 25.8151C103.965 26.1237 103.57 26.2781 103.088 26.2781Z" fill="white"/>
<path d="M113.366 26.4806C111.997 26.4806 110.762 26.1623 109.663 25.5258C108.583 24.8893 107.734 24.002 107.117 22.8639C106.499 21.7066 106.191 20.3757 106.191 18.8711C106.191 17.328 106.499 15.9874 107.117 14.8494C107.734 13.7113 108.583 12.8241 109.663 12.1875C110.762 11.5317 111.997 11.2038 113.366 11.2038C115.102 11.2038 116.549 11.6571 117.706 12.5637C118.864 13.4509 119.597 14.6469 119.905 16.1514H117.417C117.224 15.2448 116.751 14.5408 115.999 14.0393C115.247 13.5377 114.36 13.287 113.337 13.287C112.508 13.287 111.736 13.4992 111.023 13.9235C110.309 14.3286 109.74 14.9458 109.316 15.7753C108.891 16.6047 108.679 17.627 108.679 18.8422C108.679 19.7488 108.804 20.5589 109.055 21.2726C109.306 21.967 109.643 22.5457 110.068 23.0086C110.492 23.4715 110.984 23.8284 111.543 24.0791C112.122 24.3106 112.72 24.4263 113.337 24.4263C114.032 24.4263 114.659 24.3202 115.218 24.1081C115.777 23.8766 116.25 23.539 116.636 23.0954C117.021 22.6517 117.282 22.1309 117.417 21.533H119.905C119.597 22.9989 118.854 24.1949 117.677 25.1207C116.52 26.0273 115.083 26.4806 113.366 26.4806Z" fill="white"/>
<path d="M127.522 26.4806C126.346 26.4806 125.362 26.2781 124.571 25.873C123.78 25.4486 123.192 24.8989 122.806 24.2238C122.42 23.5294 122.227 22.7771 122.227 21.967C122.227 20.9833 122.478 20.1538 122.98 19.4787C123.501 18.7843 124.224 18.2635 125.15 17.9163C126.095 17.5498 127.204 17.3666 128.477 17.3666H132.325C132.325 16.46 132.181 15.7077 131.891 15.1098C131.621 14.4925 131.216 14.0296 130.676 13.721C130.155 13.4124 129.499 13.2581 128.709 13.2581C127.783 13.2581 126.982 13.4895 126.307 13.9525C125.632 14.4154 125.217 15.1001 125.063 16.0067H122.575C122.69 14.9651 123.038 14.0971 123.616 13.4027C124.214 12.689 124.967 12.1489 125.873 11.7825C126.78 11.3967 127.725 11.2038 128.709 11.2038C130.059 11.2038 131.178 11.4545 132.065 11.9561C132.971 12.4383 133.647 13.123 134.09 14.0103C134.534 14.8783 134.756 15.9103 134.756 17.1062V26.1334H132.586L132.441 23.5583C132.248 23.9634 131.997 24.3492 131.689 24.7157C131.399 25.0629 131.052 25.3715 130.647 25.6415C130.242 25.8923 129.779 26.0948 129.258 26.2491C128.757 26.4034 128.178 26.4806 127.522 26.4806ZM127.898 24.4263C128.574 24.4263 129.181 24.2913 129.721 24.0213C130.281 23.7319 130.753 23.3461 131.139 22.8639C131.525 22.3624 131.814 21.8127 132.007 21.2147C132.219 20.6168 132.325 19.9899 132.325 19.3341V19.2473H128.68C127.734 19.2473 126.973 19.363 126.394 19.5945C125.815 19.8066 125.401 20.1153 125.15 20.5203C124.899 20.9061 124.774 21.3497 124.774 21.8513C124.774 22.3721 124.889 22.8253 125.121 23.2111C125.372 23.5969 125.728 23.8959 126.191 24.1081C126.674 24.3202 127.243 24.4263 127.898 24.4263Z" fill="white"/>
<path d="M137.937 26.1334V11.551H140.136L140.309 14.3286C140.637 13.6728 141.052 13.1134 141.553 12.6505C142.074 12.1875 142.691 11.8307 143.405 11.5799C144.138 11.3292 144.968 11.2038 145.893 11.2038V13.7499H144.996C144.379 13.7499 143.791 13.8367 143.232 14.0103C142.672 14.1646 142.171 14.425 141.727 14.7915C141.303 15.158 140.965 15.6595 140.714 16.2961C140.483 16.9133 140.367 17.6849 140.367 18.6107V26.1334H137.937Z" fill="white"/>
<path d="M153.924 26.4806C152.555 26.4806 151.339 26.1623 150.279 25.5258C149.237 24.8893 148.417 24.002 147.819 22.8639C147.221 21.7066 146.922 20.366 146.922 18.8422C146.922 17.2991 147.212 15.9585 147.79 14.8205C148.388 13.6824 149.218 12.7951 150.279 12.1586C151.359 11.5221 152.593 11.2038 153.982 11.2038C155.409 11.2038 156.615 11.5221 157.599 12.1586C158.602 12.7951 159.364 13.6342 159.884 14.6758C160.425 15.6981 160.695 16.8265 160.695 18.061C160.695 18.2539 160.695 18.4564 160.695 18.6686C160.695 18.8808 160.685 19.1219 160.666 19.3919H148.745V17.5113H158.322C158.264 16.1803 157.821 15.1387 156.991 14.3865C156.181 13.6342 155.159 13.2581 153.924 13.2581C153.095 13.2581 152.323 13.4509 151.61 13.8367C150.915 14.2032 150.356 14.7529 149.931 15.4859C149.507 16.1996 149.295 17.0965 149.295 18.1767V18.9869C149.295 20.1828 149.507 21.1858 149.931 21.9959C150.375 22.8061 150.944 23.4137 151.638 23.8187C152.352 24.2238 153.114 24.4263 153.924 24.4263C154.946 24.4263 155.786 24.2045 156.441 23.7609C157.116 23.2979 157.599 22.6807 157.888 21.9091H160.29C160.058 22.7771 159.653 23.5583 159.074 24.2527C158.496 24.9471 157.772 25.4969 156.904 25.9019C156.056 26.2877 155.062 26.4806 153.924 26.4806Z" fill="white"/>
</svg>
