<svg xmlns="http://www.w3.org/2000/svg" width="28.106" height="28.107" viewBox="0 0 28.106 28.107">
  <g id="Group_1294" data-name="Group 1294" transform="translate(-29.893 815.706)">
    <rect id="Rectangle_1066" data-name="Rectangle 1066" width="18" height="18" transform="translate(35 -811)" fill="#fff"/>
    <g id="cancel_1_" data-name="cancel (1)" transform="translate(29.893 -815.706)">
      <g id="Group_733" data-name="Group 733">
        <path id="Path_534" data-name="Path 534" d="M14.108,0A14.108,14.108,0,0,0,0,14,14.2,14.2,0,0,0,14.108,28.106,14.053,14.053,0,0,0,14.108,0Zm6.929,18.6a1.647,1.647,0,0,1-2.33,2.33l-4.6-4.6L9.4,20.928a1.647,1.647,0,0,1-2.33-2.33l4.6-4.6-4.6-4.6A1.647,1.647,0,0,1,9.4,7.068l4.709,4.6,4.6-4.6a1.647,1.647,0,0,1,2.33,2.33l-4.6,4.6Z" fill="red"/>
      </g>
    </g>
  </g>
</svg>
