<svg xmlns="http://www.w3.org/2000/svg" width="19.699" height="15.67" viewBox="0 0 19.699 15.67">
  <g id="Group_1067" data-name="Group 1067" transform="translate(0 -7.9)">
    <path id="user_1_" data-name="user (1)" d="M10,6.892A5.085,5.085,0,0,0,8.7,6.08a.424.424,0,1,0-.344.775,4.241,4.241,0,0,1,1.082.674A1.691,1.691,0,0,1,10.009,8.8v.785a.425.425,0,0,1-.424.424H1.272a.425.425,0,0,1-.424-.424V8.8a1.691,1.691,0,0,1,.573-1.271A5.962,5.962,0,0,1,5.429,6.277a3.142,3.142,0,1,0-1.912-.651A5.9,5.9,0,0,0,.861,6.892,2.539,2.539,0,0,0,0,8.8v.785a1.274,1.274,0,0,0,1.272,1.272H9.585a1.274,1.274,0,0,0,1.272-1.272V8.8A2.539,2.539,0,0,0,10,6.892ZM3.139,3.139a2.29,2.29,0,1,1,2.29,2.29A2.293,2.293,0,0,1,3.139,3.139Zm0,0" transform="translate(0 7.899)" fill="#242424"/>
    <path id="user_1_2" data-name="user (1)" d="M12.572,8.669a6.4,6.4,0,0,0-1.631-1.021.533.533,0,1,0-.433.975,5.335,5.335,0,0,1,1.36.848,2.127,2.127,0,0,1,.721,1.6v.987a.534.534,0,0,1-.533.533H1.6a.534.534,0,0,1-.533-.533v-.987a2.127,2.127,0,0,1,.721-1.6,7.5,7.5,0,0,1,5.04-1.575,3.952,3.952,0,1,0-2.4-.819,7.416,7.416,0,0,0-3.34,1.593A3.194,3.194,0,0,0,0,11.069v.987a1.6,1.6,0,0,0,1.6,1.6H12.055a1.6,1.6,0,0,0,1.6-1.6v-.987a3.194,3.194,0,0,0-1.083-2.4ZM3.947,3.948a2.88,2.88,0,1,1,2.88,2.88A2.884,2.884,0,0,1,3.947,3.948Zm0,0" transform="translate(6.044 9.914)" fill="#242424"/>
  </g>
</svg>
