<svg xmlns="http://www.w3.org/2000/svg" width="15" height="21.316" viewBox="0 0 15 21.316">
  <g id="Page-1" transform="translate(0)">
    <g id="icon-65-document-image">
      <path id="document-image" d="M18.842,19.615V14.842H10.158v5.526h0l1.974-1.579,1.151.987,2.87-2.566,2.69,2.4ZM16.474,3H8.586A1.585,1.585,0,0,0,7,4.585V22.731a1.579,1.579,0,0,0,1.577,1.585H20.423A1.575,1.575,0,0,0,22,22.739V9.316H18.057a1.577,1.577,0,0,1-1.584-1.577V3Zm.789,0V7.735a.791.791,0,0,0,.782.792H22L17.263,3ZM9.368,14.053v7.895H19.632V14.053Zm3.158,3.158a.789.789,0,1,0-.789-.789.789.789,0,0,0,.789.789Z" transform="translate(-7 -3)" fill="#157efb" fill-rule="evenodd"/>
    </g>
  </g>
</svg>
