<svg xmlns="http://www.w3.org/2000/svg" width="60.604" height="86.121" viewBox="0 0 60.604 86.121">
  <g id="Page-1" transform="translate(0 34)">
    <g id="icon-65-document-image" transform="translate(0 -34)">
      <path id="document-image" d="M54.845,70.129V50.845H19.759V73.173h0l7.974-6.379,4.65,3.986L43.978,60.414l10.867,9.715ZM45.276,3H13.407A6.4,6.4,0,0,0,7,9.4V82.718a6.38,6.38,0,0,0,6.371,6.4H61.233A6.364,6.364,0,0,0,67.6,82.75V28.517H51.674a6.37,6.37,0,0,1-6.4-6.373V3Zm3.19,0V22.129a3.2,3.2,0,0,0,3.16,3.2H67.6L48.466,3Zm-31.9,44.655v31.9H58.035v-31.9ZM29.328,60.414a3.19,3.19,0,1,0-3.19-3.19,3.19,3.19,0,0,0,3.19,3.19Z" transform="translate(-7 -3)" fill="#aeadad" fill-rule="evenodd"/>
    </g>
  </g>
</svg>
