<svg xmlns="http://www.w3.org/2000/svg" width="21.968" height="22.517" viewBox="0 0 21.968 22.517">
  <path id="filter" d="M21.517,0H1.442A.943.943,0,0,0,.6.512a.956.956,0,0,0,.074,1L8.03,11.868l.008.01a2.1,2.1,0,0,1,.413,1.247v8.447a.939.939,0,0,0,.939.945.967.967,0,0,0,.37-.074l4.133-1.576a.9.9,0,0,0,.616-.883V13.125a2.1,2.1,0,0,1,.412-1.247l.008-.01L22.284,1.507a.955.955,0,0,0,.074-.995A.943.943,0,0,0,21.517,0ZM14,11.2a3.254,3.254,0,0,0-.634,1.924v6.72L9.594,21.283V13.125A3.252,3.252,0,0,0,8.959,11.2L1.819,1.143H21.14Zm0,0" transform="translate(-0.496 0)" fill="#fff"/>
</svg>
