<svg xmlns="http://www.w3.org/2000/svg" width="30.7" height="21.929" viewBox="0 0 30.7 21.929">
  <g id="Layer_24" data-name="Layer 24" transform="translate(-2 -6)">
    <path id="Path_1065" data-name="Path 1065" d="M10.482,12.579H6.1a1.1,1.1,0,0,1-1.1-1.1V7.1A1.1,1.1,0,0,1,6.1,6h4.386a1.1,1.1,0,0,1,1.1,1.1v4.386A1.1,1.1,0,0,1,10.482,12.579ZM7.193,10.386H9.386V8.193H7.193Z" transform="translate(0.289 0)" fill="#242424"/>
    <path id="Path_1066" data-name="Path 1066" d="M6,8.47v2.774h4.386V8.47a2.313,2.313,0,0,1-2.193,1.1A2.313,2.313,0,0,1,6,8.47Z" transform="translate(0.386 0.238)" fill="#242424"/>
    <path id="Path_1067" data-name="Path 1067" d="M21,15.47v2.774h4.386V15.47a2.313,2.313,0,0,1-2.193,1.1A2.313,2.313,0,0,1,21,15.47Z" transform="translate(1.832 0.913)" fill="#242424"/>
    <path id="Path_1068" data-name="Path 1068" d="M6,22.47v2.774h4.386V22.47a2.313,2.313,0,0,1-2.193,1.1A2.313,2.313,0,0,1,6,22.47Z" transform="translate(0.386 1.588)" fill="#242424"/>
    <path id="Path_1069" data-name="Path 1069" d="M30.929,10.193H10.1A1.1,1.1,0,0,1,10.1,8H30.929a1.1,1.1,0,0,1,0,2.193Z" transform="translate(0.675 0.193)" fill="#242424"/>
    <path id="Path_1070" data-name="Path 1070" d="M6.386,10.193H3.1A1.1,1.1,0,0,1,3.1,8H6.386a1.1,1.1,0,0,1,0,2.193Z" transform="translate(0 0.193)" fill="#242424"/>
    <path id="Path_1071" data-name="Path 1071" d="M10.482,26.579H6.1a1.1,1.1,0,0,1-1.1-1.1V21.1A1.1,1.1,0,0,1,6.1,20h4.386a1.1,1.1,0,0,1,1.1,1.1v4.386A1.1,1.1,0,0,1,10.482,26.579ZM7.193,24.386H9.386V22.193H7.193Z" transform="translate(0.289 1.35)" fill="#242424"/>
    <path id="Path_1072" data-name="Path 1072" d="M6.386,24.193H3.1A1.1,1.1,0,0,1,3.1,22H6.386a1.1,1.1,0,0,1,0,2.193Z" transform="translate(0 1.543)" fill="#242424"/>
    <path id="Path_1073" data-name="Path 1073" d="M30.929,24.193H10.1A1.1,1.1,0,0,1,10.1,22H30.929a1.1,1.1,0,0,1,0,2.193Z" transform="translate(0.675 1.543)" fill="#242424"/>
    <path id="Path_1074" data-name="Path 1074" d="M25.482,19.579H21.1a1.1,1.1,0,0,1-1.1-1.1V14.1A1.1,1.1,0,0,1,21.1,13h4.386a1.1,1.1,0,0,1,1.1,1.1v4.386A1.1,1.1,0,0,1,25.482,19.579Zm-3.289-2.193h2.193V15.193H22.193Z" transform="translate(1.736 0.675)" fill="#242424"/>
    <path id="Path_1075" data-name="Path 1075" d="M22.832,17.193H3.1A1.1,1.1,0,1,1,3.1,15H22.832a1.1,1.1,0,1,1,0,2.193Z" transform="translate(0 0.868)" fill="#242424"/>
    <path id="Path_1076" data-name="Path 1076" d="M29.482,17.193H25.1A1.1,1.1,0,1,1,25.1,15h4.386a1.1,1.1,0,1,1,0,2.193Z" transform="translate(2.122 0.868)" fill="#242424"/>
  </g>
</svg>
