<svg id="Page-1" xmlns="http://www.w3.org/2000/svg" width="16" height="16" viewBox="0 0 16 16">
  <g id="Artboard-Copy">
    <path id="grid" d="M356,255a1,1,0,0,0-1,1v5a1,1,0,0,0,1,1h5a1,1,0,0,0,1-1v-5a1,1,0,0,0-1-1Zm0,9a1,1,0,0,0-1,1v5a1,1,0,0,0,1,1h5a1,1,0,0,0,1-1v-5a1,1,0,0,0-1-1Zm9-9a1,1,0,0,0-1,1v5a1,1,0,0,0,1,1h5a1,1,0,0,0,1-1v-5a1,1,0,0,0-1-1Zm0,9a1,1,0,0,0-1,1v5a1,1,0,0,0,1,1h5a1,1,0,0,0,1-1v-5a1,1,0,0,0-1-1Z" transform="translate(-354.998 -254.999)" fill="#242424" fill-rule="evenodd"/>
  </g>
</svg>
