<svg xmlns="http://www.w3.org/2000/svg" width="25.671" height="24.182" viewBox="0 0 25.671 24.182">
  <path id="_5978951_cardiogram_heart_medicine_pulse_icon" data-name="5978951_cardiogram_heart_medicine_pulse_icon" d="M14.55,26.182c-2.69,0-9.318-5.244-11.8-11.221A1.248,1.248,0,0,1,3.9,13.235H8.89l2.126-3.189a1.248,1.248,0,0,1,2.222.3l1.689,5.068,1.081-1.621a1.249,1.249,0,0,1,1.039-.556h3.745a1.248,1.248,0,0,1,0,2.5H17.715l-2.126,3.189a1.248,1.248,0,0,1-2.222-.3l-1.689-5.068L10.6,15.175a1.249,1.249,0,0,1-1.039.556H5.915c2.631,4.55,7.473,7.9,8.64,7.954.924-.044,4.888-2.593,7.656-6.448,1.654-2.3,3.408-5.811,2.372-9.436A4.578,4.578,0,0,0,20.4,4.5a4.751,4.751,0,0,0-4.694,3.42,1.249,1.249,0,0,1-2.318,0A4.761,4.761,0,0,0,8.7,4.5a4.578,4.578,0,0,0-4.18,3.3,8.155,8.155,0,0,0-.3,1.76,1.248,1.248,0,1,1-2.492-.144,10.634,10.634,0,0,1,.389-2.3A7.077,7.077,0,0,1,8.57,2.009,6.906,6.906,0,0,1,14.55,4.9a6.881,6.881,0,0,1,5.98-2.888,7.077,7.077,0,0,1,6.454,5.106c1.36,4.765-.914,9.159-3.062,12.007C21.136,22.817,16.669,26.182,14.55,26.182Z" transform="translate(-1.725 -1.999)" fill="#ba2755"/>
</svg>
