<svg xmlns="http://www.w3.org/2000/svg" xmlns:xlink="http://www.w3.org/1999/xlink" width="61" height="62" viewBox="0 0 61 62">
  <defs>
    <filter id="Ellipse_118" x="0" y="0" width="61" height="62" filterUnits="userSpaceOnUse">
      <feOffset dy="1" input="SourceAlpha"/>
      <feGaussianBlur stdDeviation="3" result="blur"/>
      <feFlood flood-opacity="0.161"/>
      <feComposite operator="in" in2="blur"/>
      <feComposite in="SourceGraphic"/>
    </filter>
  </defs>
  <g id="Group_5160" data-name="Group 5160" transform="translate(-939.5 -23)">
    <g transform="matrix(1, 0, 0, 1, 939.5, 23)" filter="url(#Ellipse_118)">
      <ellipse id="Ellipse_118-2" data-name="Ellipse 118" cx="21.5" cy="22" rx="21.5" ry="22" transform="translate(9 8)" fill="#fff"/>
    </g>
    <path id="_8665440_heart_pulse_icon" data-name="8665440_heart_pulse_icon" d="M44,39.922l-1.864,3.722a.6.6,0,0,1-1.082-.023l-2.131-4.728L37.8,41.577l-3.67,0,6.6,6.816a1.194,1.194,0,0,0,1.722,0l6.6-6.816H44.858Zm5.342-6.769a5.159,5.159,0,0,0-7.015.489l-.737.761-.737-.761a5.158,5.158,0,0,0-7.014-.489,5.361,5.361,0,0,0-.772,7.226H37l1.344-3.227a.6.6,0,0,1,1.105-.014l2.178,4.841,1.836-3.666a.6.6,0,0,1,1.073,0l1.035,2.067h4.545A5.36,5.36,0,0,0,49.344,33.153Z" transform="translate(928.485 13.002)" fill="#f0137a"/>
  </g>
</svg>
