<svg xmlns="http://www.w3.org/2000/svg" width="9.181" height="14.848" viewBox="0 0 9.181 14.848">
  <g id="_211675_help_icon" data-name="211675_help_icon" transform="translate(0 0)">
    <path id="Path_1000" data-name="Path 1000" d="M135.786,50.008A5.451,5.451,0,0,0,132.278,49a4.761,4.761,0,0,0-2.708.706C128.5,50.435,128,51.657,128,53.59h2.754a2.761,2.761,0,0,1,.251-1.549,1.6,1.6,0,0,1,1.442-.843,1.641,1.641,0,0,1,1.463.649,1.885,1.885,0,0,1-.039,2.417,2.384,2.384,0,0,1-.542.552,7.4,7.4,0,0,0-2.012,1.725,4.645,4.645,0,0,0-.563,2.342c0,.068.022.208.258.208h2.216a.233.233,0,0,0,.255-.222,6.068,6.068,0,0,1,.118-1.062,1.992,1.992,0,0,1,.706-.979l.742-.513a8.083,8.083,0,0,0,1.442-1.287,3.4,3.4,0,0,0,.689-2.041A3.512,3.512,0,0,0,135.786,50.008Zm-3.7,10.511a1.626,1.626,0,0,0-1.729,1.625,1.69,1.69,0,1,0,1.729-1.625Z" transform="translate(-128 -49)" fill="#242424"/>
  </g>
</svg>
