<svg xmlns="http://www.w3.org/2000/svg" width="16.508" height="16.469" viewBox="0 0 16.508 16.469">
  <path id="_1904661_building_dashboard_default_home_house_icon" data-name="1904661_building_dashboard_default_home_house_icon" d="M16.123,7.606,14.65,6.134h0L8.781.259a.884.884,0,0,0-1.251,0L1.653,6.13h0L.177,7.606a.379.379,0,0,0,.536.536l.83-.83v7.972a.884.884,0,0,0,.884.884h3.45a.884.884,0,0,0,.884-.884V10.231a.126.126,0,0,1,.126-.126H9.413a.126.126,0,0,1,.126.126v5.053a.884.884,0,0,0,.884.884h3.454a.884.884,0,0,0,.884-.884V7.316l.826.826a.379.379,0,0,0,.536-.536ZM14,15.284a.126.126,0,0,1-.126.126H10.423a.126.126,0,0,1-.126-.126V10.231a.884.884,0,0,0-.884-.884H6.887A.884.884,0,0,0,6,10.231v5.053a.126.126,0,0,1-.126.126H2.426a.126.126,0,0,1-.126-.126V6.555L8.06.794a.126.126,0,0,1,.178,0L14,6.558Z" transform="translate(0.104 0.151)" fill="#242424" stroke="#242424" stroke-width="0.3"/>
</svg>
