<svg xmlns="http://www.w3.org/2000/svg" width="21.794" height="21.796" viewBox="0 0 21.794 21.796">
  <path id="home_4_" data-name="home (4)" d="M21.709,9.48l0,0L12.816.587a2.006,2.006,0,0,0-2.838,0L1.092,9.473l-.009.009A2.006,2.006,0,0,0,2.418,12.9c.021,0,.041,0,.062,0h.354v6.543A2.351,2.351,0,0,0,5.182,21.8H8.661a.639.639,0,0,0,.639-.639v-5.13a1.073,1.073,0,0,1,1.072-1.071h2.052a1.073,1.073,0,0,1,1.071,1.071v5.13a.639.639,0,0,0,.639.639h3.478a2.351,2.351,0,0,0,2.349-2.348V12.9h.329a2.007,2.007,0,0,0,1.42-3.425Zm-.9,1.934a.725.725,0,0,1-.516.214h-.967a.639.639,0,0,0-.639.639v7.181a1.073,1.073,0,0,1-1.071,1.071h-2.84V16.027a2.351,2.351,0,0,0-2.349-2.349H10.371a2.351,2.351,0,0,0-2.349,2.349v4.491H5.182a1.073,1.073,0,0,1-1.071-1.071V12.266a.639.639,0,0,0-.639-.639h-.98a.729.729,0,0,1-.5-1.244h0l8.891-8.89a.729.729,0,0,1,1.031,0L20.8,10.379l0,0a.731.731,0,0,1,0,1.031Zm0,0" transform="translate(-0.5 0.001)" fill="#242424"/>
</svg>
