<svg width="32" height="32" viewBox="0 0 32 32" fill="none" xmlns="http://www.w3.org/2000/svg">
<path d="M14.286 22.0001H21.1431V23.7144H14.286V22.0001ZM10.8574 22.0001H12.5717V23.7144H10.8574V22.0001ZM14.286 17.7144H21.1431V19.4287H14.286V17.7144ZM10.8574 17.7144H12.5717V19.4287H10.8574V17.7144ZM14.286 13.4287H21.1431V15.143H14.286V13.4287ZM10.8574 13.4287H12.5717V15.143H10.8574V13.4287Z" fill="#7859BA"/>
<path d="M23.7151 6.57143H21.1437V5.71429C21.1437 5.25963 20.9631 4.82359 20.6416 4.5021C20.3201 4.18061 19.8841 4 19.4294 4H12.5723C12.1176 4 11.6816 4.18061 11.3601 4.5021C11.0386 4.82359 10.858 5.25963 10.858 5.71429V6.57143H8.28655C7.83189 6.57143 7.39586 6.75204 7.07437 7.07353C6.75288 7.39502 6.57227 7.83106 6.57227 8.28571V26.2857C6.57227 26.7404 6.75288 27.1764 7.07437 27.4979C7.39586 27.8194 7.83189 28 8.28655 28H23.7151C24.1698 28 24.6058 27.8194 24.9273 27.4979C25.2488 27.1764 25.4294 26.7404 25.4294 26.2857V8.28571C25.4294 7.83106 25.2488 7.39502 24.9273 7.07353C24.6058 6.75204 24.1698 6.57143 23.7151 6.57143ZM12.5723 5.71429H19.4294V9.14286H12.5723V5.71429ZM23.7151 26.2857H8.28655V8.28571H10.858V10.8571H21.1437V8.28571H23.7151V26.2857Z" fill="#7859BA"/>
</svg>
