<svg xmlns="http://www.w3.org/2000/svg" width="18.8" height="18.799" viewBox="0 0 18.8 18.799">
  <g id="globe-2" transform="translate(-1.457 -1.028)">
    <path id="Path_81" data-name="Path 81" d="M13.179,6.288v.018l.011-.013Z" transform="translate(-3.945 -1.77)" fill="#515151"/>
    <path id="Path_82" data-name="Path 82" d="M10.857,1.028a9.4,9.4,0,1,0,9.4,9.4A9.411,9.411,0,0,0,10.857,1.028Zm8.588,9.4c0,.165-.015.325-.025.488-.06-.153-.152-.352-.174-.437-.032-.13-.226-.583-.226-.583a1.467,1.467,0,0,0-.324-.324c-.129-.065-.226-.227-.453-.356a.935.935,0,0,0-.517-.194c-.2,0-.388-.259-.616-.389s-.259-.064-.259-.064a2.188,2.188,0,0,1,.259.485c0,.1.291.259.583.194a3.194,3.194,0,0,0,.291.453c.1.1-.033.194-.226.324a1.05,1.05,0,0,0-.26.194,4.365,4.365,0,0,1-.518.324c-.1.064-.485.259-.679.064-.095-.094-.066-.291-.129-.421S15.428,9.052,15.1,8.6a1.882,1.882,0,0,0-.291-.388c-.1-.066.227-.066.227-.066a2.41,2.41,0,0,0-.033-.388,1,1,0,0,1,.033-.388s-.324.194-.422.259-.194-.129-.322-.291A1.391,1.391,0,0,1,14,6.819c-.033-.161.162-.226.162-.226l.291-.161A2.356,2.356,0,0,1,15.04,6.4c.226.033.582.065.582.065s.1-.227-.033-.324-.421-.259-.551-.226.064-.162.226-.291l-.358-.065s-.326.162-.423.194a.819.819,0,0,0-.4.259c-.129.162.052.388-.078.453a2.02,2.02,0,0,1-.314.129,1.632,1.632,0,0,1-.4,0c-.334,0-.12.305-.033.413L13,6.69l-.192-.453s-.276-.194-.405-.258-.528-.291-.528-.291l.028.291.375.38.033.009.2.259-.431.033V6.4c-.406-.1-.3-.2-.346-.23-.1-.064-.321-.227-.321-.227s-.381.065-.478.1-.125.129-.318.194a.609.609,0,0,0-.347.259,4.725,4.725,0,0,1-.4.518c-.13.13-.37.1-.467.1a5.061,5.061,0,0,1-.565-.129V6.432a1.367,1.367,0,0,0,.031-.4l.283-.048.473-.1.139-.1.2-.259a.273.273,0,0,1-.062-.388c.078-.109.357-.129.486-.226A1.346,1.346,0,0,1,10.7,4.75s.227-.194.453-.421a2.025,2.025,0,0,1,.356-.163,3.731,3.731,0,0,0,.648.486,1.939,1.939,0,0,0,.453-.226,1.063,1.063,0,0,0,.065-.388c-.033-.1-.194-.421-.194-.421s-.1.162-.194.291a1.482,1.482,0,0,0-.162.291s-.453-.031-.485-.128-.1-.257-.13-.354-.291-.094-.484-.029.031-.349.031-.349.2-.244.324-.244a3.769,3.769,0,0,0,.549-.2,4.21,4.21,0,0,1,.68-.18c.162,0,.356.07.454.07h.485l.679-.054s.583.216.388.346a2.389,2.389,0,0,1,.324.237c.091.092.326-.084.46-.159A8.582,8.582,0,0,1,19.444,10.428ZM4,5.364c0,.129-.176.161,0,.486.226.421.032.615.032.615s-.551.388-.648.453-.356.421-.194.323.356-.194.194.065-.453.679-.518.842-.388.55-.388.744a6.706,6.706,0,0,0-.1.745,1.613,1.613,0,0,1-.106.582A8.519,8.519,0,0,1,3.947,5.352.262.262,0,0,1,4,5.364Zm1.04-1.241A8.6,8.6,0,0,1,7.786,2.416c-.1.129-.223.262-.223.262s-.226,0-.648.453a5.454,5.454,0,0,0-.42.453.841.841,0,0,1-.292.324,1.1,1.1,0,0,0-.323.356l-.356.129-.291-.129s-.26.1-.228-.033A1.117,1.117,0,0,1,5.044,4.123Zm3.879.755-.129-.194.129-.291.312.125V3.94l.3-.161.247.356.381.421-.253.194-.674.129V4.536ZM13.131,7.92c.076-.06.323.1.323.1a5.292,5.292,0,0,1,.938.259c.13.1.356.163.421.26a4.1,4.1,0,0,1,.322.485c.033.1.2.454.228.583a2.91,2.91,0,0,0,.226.615c.1.163.648.874.841,1.2l.584-.1a1.786,1.786,0,0,1-.13.388c-.064.1-.259.356-.356.485a2.609,2.609,0,0,1-.421.485c-.194.161-.2.323-.291.453a3,3,0,0,0-.227.421s.065.648.1.777-.226.485-.226.485l-.292.292-.39.517.032.485s-.295.228-.457.356-.135.226-.265.356a2.858,2.858,0,0,1-.764.388c-.129.033-.843.129-.843.129v-.291l-.015-.324a2.154,2.154,0,0,0-.2-.518c-.1-.129-.055-.324-.217-.486a.955.955,0,0,1-.254-.389,1.2,1.2,0,0,1,.035-.387s.131-.356.2-.486A.566.566,0,0,0,11.965,14a1.79,1.79,0,0,1-.1-.55c0-.1-.26-.259-.357-.356s-.064-.227-.064-.355a3.4,3.4,0,0,1-.065-.648c.033-.226-.291-.065-.485,0s-.323-.065-.323-.259-.356-.032-.583.1a5.078,5.078,0,0,1-.746.227.318.318,0,0,1-.387-.1,3.922,3.922,0,0,0-.388-.291,2,2,0,0,1-.454-.453,3.167,3.167,0,0,1-.484-.841,3.117,3.117,0,0,1,0-.551,2.494,2.494,0,0,1,.032-.518,1.8,1.8,0,0,1,.227-.518,2.092,2.092,0,0,1,.549-.421c.1-.064.324-.258.324-.388s.13-.194.194-.324.292-.453.583-.323A2.822,2.822,0,0,0,9.8,7.37a4.856,4.856,0,0,0,.484-.194,1.837,1.837,0,0,1,.452-.1,1.607,1.607,0,0,0,.352.1c.1,0,.413-.056.413-.056a4.626,4.626,0,0,1,.146.567c0,.1.1.194.259.259S12.807,8.18,13.131,7.92Zm3.722,6.344a2.864,2.864,0,0,1-.065.486c-.034.129-.1.356-.129.484a1.107,1.107,0,0,1-.291.454c-.1.065-.259.259-.356.291s-.163-.227-.13-.356a5.061,5.061,0,0,1,.194-.485s.033-.194.064-.324.421-.291.421-.291l.259-.486A1.317,1.317,0,0,1,16.852,14.264ZM2.491,12.336a.477.477,0,0,1,.186.116,1.08,1.08,0,0,0,.356.226c.161.066.226.161.421.259s.13.033.388.324a.951.951,0,0,1,.291.453,2.441,2.441,0,0,0,.227.421c.065.1.259.161.356.226a.791.791,0,0,0,.356.129c.1,0,.389.291.551.323s.162.357.162.357l-.162.453-.13.485.13.388a.727.727,0,0,1-.323.163c-.119,0-.16.076-.291.04A8.58,8.58,0,0,1,2.491,12.336Z" fill="#515151"/>
  </g>
</svg>
