<svg id="_5402408_list_menu_options_playlist_checklist_icon" data-name="5402408_list_menu_options_playlist_checklist_icon" xmlns="http://www.w3.org/2000/svg" width="21" height="15.75" viewBox="0 0 21 15.75">
  <path id="Path_78" data-name="Path 78" d="M22.438,8.625H9.312A1.313,1.313,0,0,1,9.312,6H22.438a1.313,1.313,0,0,1,0,2.625Z" transform="translate(-2.75 -6)" fill="#242424"/>
  <path id="Path_79" data-name="Path 79" d="M22.438,13.625H9.312a1.313,1.313,0,0,1,0-2.625H22.438a1.313,1.313,0,0,1,0,2.625Z" transform="translate(-2.75 -4.438)" fill="#242424"/>
  <path id="Path_80" data-name="Path 80" d="M22.438,18.625H9.312a1.312,1.312,0,1,1,0-2.625H22.438a1.312,1.312,0,1,1,0,2.625Z" transform="translate(-2.75 -2.875)" fill="#242424"/>
  <circle id="Ellipse_12" data-name="Ellipse 12" cx="1.313" cy="1.313" r="1.313" fill="#242424"/>
  <circle id="Ellipse_13" data-name="Ellipse 13" cx="1.313" cy="1.313" r="1.313" transform="translate(0 6.563)" fill="#242424"/>
  <circle id="Ellipse_14" data-name="Ellipse 14" cx="1.313" cy="1.313" r="1.313" transform="translate(0 13.125)" fill="#242424"/>
</svg>
