<?xml version="1.0" encoding="UTF-8"?>
<svg xmlns="http://www.w3.org/2000/svg" xmlns:xlink="http://www.w3.org/1999/xlink" width="150px" height="150px" viewBox="0 0 150 150" version="1.1">
<g id="surface1">
<path style=" stroke:none;fill-rule:evenodd;fill:rgb(93.72549%,25.490196%,21.176471%);fill-opacity:1;" d="M 75 0 C 116.421875 0 150 33.578125 150 75 C 150 116.421875 116.421875 150 75 150 C 33.578125 150 0 116.421875 0 75 C 0 33.578125 33.578125 0 75 0 Z M 75 0 "/>
<path style=" stroke:none;fill-rule:evenodd;fill:rgb(100%,48.627451%,45.098039%);fill-opacity:1;" d="M 75 2.746094 C 114.878906 2.746094 147.203125 35.074219 147.203125 74.949219 C 147.203125 75.890625 147.203125 76.832031 147.203125 77.757812 C 145.777344 38.949219 113.898438 8.222656 75.0625 8.222656 C 36.222656 8.222656 4.34375 38.949219 2.917969 77.757812 C 2.917969 76.832031 2.917969 75.890625 2.917969 74.953125 C 2.917969 35.121094 35.171875 2.8125 75 2.746094 Z M 75 2.746094 "/>
<path style=" stroke:none;fill-rule:nonzero;fill:rgb(100%,100%,100%);fill-opacity:1;" d="M 98.875 54.625 C 95.753906 51.015625 96.144531 45.554688 99.757812 42.433594 C 103.367188 39.308594 108.824219 39.699219 111.949219 43.3125 C 128.925781 62.957031 127.554688 92.453125 108.832031 110.441406 C 90.105469 128.429688 60.578125 128.621094 41.628906 110.875 C 22.675781 93.125 20.925781 63.648438 37.644531 43.785156 C 40.722656 40.136719 46.179688 39.671875 49.828125 42.75 C 53.480469 45.828125 53.945312 51.28125 50.867188 54.929688 C 40.054688 67.765625 41.183594 86.816406 53.429688 98.289062 C 65.679688 109.761719 84.761719 109.640625 96.863281 98.015625 C 108.964844 86.386719 109.851562 67.324219 98.875 54.625 Z M 83.667969 58.496094 C 83.667969 63.28125 79.785156 67.164062 75 67.164062 C 70.214844 67.164062 66.332031 63.28125 66.332031 58.496094 L 66.332031 32.640625 C 66.332031 27.855469 70.214844 23.972656 75 23.972656 C 79.785156 23.972656 83.667969 27.855469 83.667969 32.640625 Z M 83.667969 58.496094 "/>
</g>
</svg>
