<svg xmlns="http://www.w3.org/2000/svg" width="15.4" height="19.231" viewBox="0 0 15.4 19.231">
  <g id="new" transform="translate(-51 0)">
    <g id="Group_2" data-name="Group 2" transform="translate(51 0)">
      <g id="Group_1" data-name="Group 1" transform="translate(0)">
        <path id="Path_1" data-name="Path 1" d="M66.235,5.8,60.6.165A.563.563,0,0,0,60.2,0H51.563A.563.563,0,0,0,51,.563v18.1a.563.563,0,0,0,.563.563H65.837a.563.563,0,0,0,.563-.563V6.2A.563.563,0,0,0,66.235,5.8ZM65.273,18.1H52.127V1.127h7.842l5.3,5.3Z" transform="translate(-51 0)" fill="#242424"/>
      </g>
    </g>
    <g id="Group_4" data-name="Group 4" transform="translate(55.259 6.174)">
      <g id="Group_3" data-name="Group 3">
        <path id="Path_2" data-name="Path 2" d="M196.728,193.49h-1.743v-1.743a.747.747,0,0,0-1.494,0v1.743h-1.743a.747.747,0,0,0,0,1.494h1.743v1.743a.747.747,0,0,0,1.494,0v-1.743h1.743a.747.747,0,1,0,0-1.494Z" transform="translate(-191 -191)" fill="#242424"/>
      </g>
    </g>
  </g>
</svg>
