<svg xmlns="http://www.w3.org/2000/svg" width="20.903" height="15.714" viewBox="0 0 20.903 15.714">
  <g id="_5975198_avoid_corona_coronavirus_gesture_handshake_icon" data-name="5975198_avoid_corona_coronavirus_gesture_handshake_icon" transform="translate(-1.7 -1.5)">
    <g id="Group_1064" data-name="Group 1064">
      <g id="Group_1065" data-name="Group 1065" transform="translate(0.17)">
        <g id="Group_1066" data-name="Group 1066">
          <path id="user_1_" data-name="user (1)" d="M14.467,9.975A7.36,7.36,0,0,0,12.59,8.8a.614.614,0,1,0-.5,1.122,6.139,6.139,0,0,1,1.565.975,2.448,2.448,0,0,1,.829,1.84v1.136a.615.615,0,0,1-.614.614H1.842a.615.615,0,0,1-.614-.614V12.737a2.448,2.448,0,0,1,.829-1.84,8.629,8.629,0,0,1,5.8-1.813A4.548,4.548,0,1,0,5.09,8.142,8.533,8.533,0,0,0,1.247,9.975,3.675,3.675,0,0,0,0,12.737v1.136a1.843,1.843,0,0,0,1.841,1.841H13.872a1.843,1.843,0,0,0,1.841-1.841V12.737a3.675,3.675,0,0,0-1.246-2.762ZM4.542,4.543A3.315,3.315,0,1,1,7.857,7.857,3.318,3.318,0,0,1,4.542,4.543Zm0,0" transform="translate(1.53 1.5)" fill="#242424"/>
          <g id="Group_1063" data-name="Group 1063" transform="translate(7.427 0.166)">
            <g id="Group_1062" data-name="Group 1062" transform="translate(8.536 2.551)">
              <g id="Group_3" data-name="Group 3">
                <path id="Path_2" data-name="Path 2" d="M196.723,193.488h-1.742v-1.742a.747.747,0,0,0-1.493,0v1.742h-1.742a.747.747,0,0,0,0,1.493h1.742v1.742a.747.747,0,1,0,1.493,0v-1.742h1.742a.747.747,0,1,0,0-1.493Z" transform="translate(-191 -191)" fill="#242424"/>
              </g>
            </g>
          </g>
        </g>
      </g>
    </g>
  </g>
</svg>
