<svg xmlns="http://www.w3.org/2000/svg" width="22.383" height="25.698" viewBox="0 0 22.383 25.698">
  <path id="notification_2_" data-name="notification (2)" d="M17.6,11.183A4.785,4.785,0,1,0,13.347,4.2a7.83,7.83,0,0,0-1.738-.7,2.366,2.366,0,1,0-4.15,0,7.935,7.935,0,0,0-5.847,7.645v6.717a2.366,2.366,0,0,0,.753,4.609H5.628a3.978,3.978,0,0,0,7.812,0H16.7a2.366,2.366,0,0,0,.753-4.609V11.18l.143,0Zm0-8.064A3.279,3.279,0,1,1,14.319,6.4,3.283,3.283,0,0,1,17.6,3.119ZM9.534,1.506a.86.86,0,1,1-.86.86A.861.861,0,0,1,9.534,1.506Zm0,22.686a2.477,2.477,0,0,1-2.356-1.72H11.89A2.477,2.477,0,0,1,9.534,24.192Zm6.415-13.046v7.347a.753.753,0,0,0,.753.753.86.86,0,0,1,0,1.72H2.366a.86.86,0,0,1,0-1.72.753.753,0,0,0,.753-.753V11.147a6.416,6.416,0,0,1,9.75-5.481,4.787,4.787,0,0,0,3.074,5.222c0,.086.006.173.006.259Zm0,0" transform="translate(0 0)" fill="#242424"/>
</svg>
