<svg xmlns="http://www.w3.org/2000/svg" width="16.433" height="16.433" viewBox="0 0 16.433 16.433">
  <path id="user_1_" data-name="user (1)" d="M15.13,10.432A7.7,7.7,0,0,0,13.167,9.2a.642.642,0,1,0-.521,1.173,6.42,6.42,0,0,1,1.637,1.02,2.56,2.56,0,0,1,.867,1.924v1.188a.643.643,0,0,1-.642.642H1.926a.643.643,0,0,1-.642-.642V13.32A2.56,2.56,0,0,1,2.151,11.4,9.024,9.024,0,0,1,8.217,9.5a4.756,4.756,0,1,0-2.893-.986A8.924,8.924,0,0,0,1.3,10.432,3.844,3.844,0,0,0,0,13.32v1.188a1.928,1.928,0,0,0,1.926,1.926H14.508a1.928,1.928,0,0,0,1.926-1.926V13.32a3.844,3.844,0,0,0-1.3-2.888ZM4.75,4.751A3.466,3.466,0,1,1,8.217,8.217,3.47,3.47,0,0,1,4.75,4.751Zm0,0" transform="translate(0 0)" fill="#242424"/>
</svg>
