<svg xmlns="http://www.w3.org/2000/svg" width="16.433" height="12.37" viewBox="0 0 16.433 12.37">
  <g id="list_2_" data-name="list (2)" transform="translate(0 -7.434)">
    <path id="Path_3" data-name="Path 3" d="M25.729,47.533H14.74a.82.82,0,1,1,0-1.64H25.729a.82.82,0,0,1,0,1.64Z" transform="translate(-10.115 -27.947)" fill="#242424"/>
    <path id="Path_4" data-name="Path 4" d="M25.729,28.7H14.74a.82.82,0,1,1,0-1.64H25.729a.82.82,0,0,1,0,1.64Z" transform="translate(-10.115 -14.263)" fill="#242424"/>
    <path id="Path_5" data-name="Path 5" d="M25.729,9.871H14.74a.82.82,0,0,1,0-1.64H25.729a.82.82,0,0,1,0,1.64Z" transform="translate(-10.115 -0.579)" fill="#242424"/>
    <circle id="Ellipse_1" data-name="Ellipse 1" cx="1.101" cy="1.101" r="1.101" transform="translate(0 7.434)" fill="#242424"/>
    <circle id="Ellipse_2" data-name="Ellipse 2" cx="1.101" cy="1.101" r="1.101" transform="translate(0 12.518)" fill="#242424"/>
    <circle id="Ellipse_3" data-name="Ellipse 3" cx="1.101" cy="1.101" r="1.101" transform="translate(0 17.601)" fill="#242424"/>
  </g>
</svg>
