<svg width="32" height="32" viewBox="0 0 32 32" fill="none" xmlns="http://www.w3.org/2000/svg">
<path d="M11.2008 4.0002C11.2008 3.78802 11.2851 3.58454 11.4351 3.43451C11.5851 3.28448 11.7886 3.2002 12.0008 3.2002H15.2008C15.413 3.2002 15.6164 3.28448 15.7665 3.43451C15.9165 3.58454 16.0008 3.78802 16.0008 4.0002V4.8002H16.8008C17.013 4.8002 17.2164 4.88448 17.3665 5.03451C17.5165 5.18454 17.6008 5.38802 17.6008 5.6002V8.0482C17.6592 8.0412 17.7182 8.04067 17.7768 8.0466C19.9388 8.25027 21.9828 9.12562 23.6221 10.5499C25.2615 11.9741 26.4138 13.8757 26.9176 15.9881C27.4214 18.1004 27.2513 20.3175 26.4312 22.3283C25.6111 24.3391 24.1822 26.0427 22.3448 27.2002H26.4008C26.613 27.2002 26.8164 27.2845 26.9665 27.4345C27.1165 27.5845 27.2008 27.788 27.2008 28.0002C27.2008 28.2124 27.1165 28.4159 26.9665 28.5659C26.8164 28.7159 26.613 28.8002 26.4008 28.8002H5.60078C5.38861 28.8002 5.18513 28.7159 5.0351 28.5659C4.88507 28.4159 4.80078 28.2124 4.80078 28.0002C4.80078 27.788 4.88507 27.5845 5.0351 27.4345C5.18513 27.2845 5.38861 27.2002 5.60078 27.2002H16.8008C19.0678 27.2038 21.2486 26.3323 22.8889 24.7675C24.5292 23.2027 25.5023 21.0652 25.6055 18.8006C25.7086 16.536 24.9338 14.3189 23.4426 12.6115C21.9513 10.904 19.8587 9.83793 17.6008 9.6354V18.4002C17.6008 18.6124 17.5165 18.8159 17.3665 18.9659C17.2164 19.1159 17.013 19.2002 16.8008 19.2002H16.0008V20.0002C16.0008 20.6367 15.7479 21.2472 15.2978 21.6973C14.8477 22.1473 14.2373 22.4002 13.6008 22.4002C12.9643 22.4002 12.3538 22.1473 11.9037 21.6973C11.4536 21.2472 11.2008 20.6367 11.2008 20.0002V19.2002H10.4008C10.1886 19.2002 9.98512 19.1159 9.8351 18.9659C9.68507 18.8159 9.60078 18.6124 9.60078 18.4002V5.6002C9.60078 5.38802 9.68507 5.18454 9.8351 5.03451C9.98512 4.88448 10.1886 4.8002 10.4008 4.8002H11.2008V4.0002ZM12.8008 19.2002V20.0002C12.8008 20.2124 12.8851 20.4159 13.0351 20.5659C13.1851 20.7159 13.3886 20.8002 13.6008 20.8002C13.813 20.8002 14.0164 20.7159 14.1665 20.5659C14.3165 20.4159 14.4008 20.2124 14.4008 20.0002V19.2002H12.8008ZM11.2008 17.6002H16.0008V6.4002H11.2008V17.6002ZM8.80078 24.0002C8.58861 24.0002 8.38512 24.0845 8.2351 24.2345C8.08507 24.3845 8.00078 24.588 8.00078 24.8002C8.00078 25.0124 8.08507 25.2159 8.2351 25.3659C8.38512 25.5159 8.58861 25.6002 8.80078 25.6002H18.4008C18.613 25.6002 18.8164 25.5159 18.9665 25.3659C19.1165 25.2159 19.2008 25.0124 19.2008 24.8002C19.2008 24.588 19.1165 24.3845 18.9665 24.2345C18.8164 24.0845 18.613 24.0002 18.4008 24.0002H8.80078Z" fill="#7859BA"/>
</svg>
