<svg width="32" height="32" viewBox="0 0 32 32" fill="none" xmlns="http://www.w3.org/2000/svg">
<path fill-rule="evenodd" clip-rule="evenodd" d="M19.3327 5.99984C19.3327 6.88389 18.9815 7.73174 18.3564 8.35686C17.7312 8.98198 16.8834 9.33317 15.9993 9.33317C15.1153 9.33317 14.2674 8.98198 13.6423 8.35686C13.0172 7.73174 12.666 6.88389 12.666 5.99984C12.666 5.11578 13.0172 4.26794 13.6423 3.64281C14.2674 3.01769 15.1153 2.6665 15.9993 2.6665C16.8834 2.6665 17.7312 3.01769 18.3564 3.64281C18.9815 4.26794 19.3327 5.11578 19.3327 5.99984ZM17.9993 5.99984C17.9993 6.53027 17.7886 7.03898 17.4136 7.41405C17.0385 7.78912 16.5298 7.99984 15.9993 7.99984C15.4689 7.99984 14.9602 7.78912 14.5851 7.41405C14.2101 7.03898 13.9993 6.53027 13.9993 5.99984C13.9993 5.4694 14.2101 4.9607 14.5851 4.58562C14.9602 4.21055 15.4689 3.99984 15.9993 3.99984C16.5298 3.99984 17.0385 4.21055 17.4136 4.58562C17.7886 4.9607 17.9993 5.4694 17.9993 5.99984Z" fill="#7859BA"/>
<path d="M11.332 27.3332V22.6665H12.6654V27.3332C12.6654 27.51 12.7356 27.6796 12.8606 27.8046C12.9857 27.9296 13.1552 27.9998 13.332 27.9998H13.39C13.5563 27.9997 13.7166 27.9374 13.8393 27.8251C13.9621 27.7129 14.0384 27.5588 14.0534 27.3932L14.4834 22.6665H15.822L15.382 27.5145C15.3709 27.634 15.3493 27.7522 15.3174 27.8678C15.2004 28.2893 14.9486 28.6608 14.6004 28.9255C14.2521 29.1901 13.8267 29.3333 13.3894 29.3332H13.332C12.8016 29.3332 12.2929 29.1225 11.9178 28.7474C11.5427 28.3723 11.332 27.8636 11.332 27.3332ZM17.9434 27.3932L17.5134 22.6665H16.1747L16.6154 27.5145C16.6265 27.634 16.6481 27.7522 16.68 27.8678C16.7969 28.2892 17.0487 28.6606 17.3968 28.9253C17.7449 29.1899 18.1701 29.3332 18.6074 29.3332H18.6654C19.1958 29.3332 19.7045 29.1225 20.0796 28.7474C20.4547 28.3723 20.6654 27.8636 20.6654 27.3332V22.6665H19.332V27.3332C19.332 27.51 19.2618 27.6796 19.1368 27.8046C19.0117 27.9296 18.8422 27.9998 18.6654 27.9998H18.6074C18.4409 27.9998 18.2805 27.9376 18.1576 27.8253C18.0348 27.7131 17.9583 27.5589 17.9434 27.3932Z" fill="#7859BA"/>
<path fill-rule="evenodd" clip-rule="evenodd" d="M7.33268 10C7.15587 10 6.9863 10.0702 6.86128 10.1953C6.73625 10.3203 6.66602 10.4899 6.66602 10.6667V20.6667C6.66602 20.8435 6.73625 21.013 6.86128 21.1381C6.9863 21.2631 7.15587 21.3333 7.33268 21.3333H24.666C24.8428 21.3333 25.0124 21.2631 25.1374 21.1381C25.2624 21.013 25.3327 20.8435 25.3327 20.6667V10.6667C25.3327 10.4899 25.2624 10.3203 25.1374 10.1953C25.0124 10.0702 24.8428 10 24.666 10H7.33268ZM7.99935 11.3333V20H12.9993C12.9993 19.628 13.1727 19.3047 13.3513 19.0667C13.5505 18.8113 13.7867 18.587 14.052 18.4013C14.4404 18.1225 14.8735 17.9119 15.3327 17.7787V16.3333H14.7993C14.3973 16.3333 13.8347 16.576 13.2947 16.9033C12.9968 17.0847 12.7107 17.2847 12.438 17.502L12.428 17.5107L12.426 17.512L11.9993 17L11.5727 16.488L11.5733 16.4867L11.5753 16.4853L11.58 16.4813L11.5973 16.468C11.6873 16.3955 11.7786 16.3248 11.8713 16.256C12.0513 16.1227 12.3067 15.9427 12.604 15.7627C13.164 15.424 14.0013 15 14.7993 15H15.3327V13.6667H14.9993C14.6193 13.6667 14.126 13.8 13.686 13.96C13.4439 14.0482 13.2061 14.1476 12.9733 14.258L12.9653 14.2627H12.964L12.666 13.6667L12.368 13.07L12.37 13.0693L12.3747 13.0673L12.3887 13.06C12.4648 13.0228 12.5417 12.9873 12.6193 12.9533C12.7707 12.8867 12.9833 12.7967 13.23 12.7067C13.7053 12.5333 14.3787 12.3333 14.9993 12.3333H15.3327V11.3333H7.99935ZM16.666 16.3333H17.3993C17.8987 16.3333 18.412 16.5773 18.8413 16.8793C19.0772 17.0456 19.2973 17.2333 19.4987 17.44L19.504 17.4467L19.9993 17L20.4947 16.5533L20.4933 16.5527L20.492 16.5507L20.4873 16.5453L20.4727 16.53C20.3988 16.4521 20.3226 16.3765 20.244 16.3033C20.0437 16.1171 19.831 15.9447 19.6073 15.7873C19.0873 15.4227 18.3007 15 17.3993 15H16.666V13.6667H17.166C17.6287 13.6667 18.0793 13.8007 18.428 13.948C18.6121 14.0256 18.7904 14.1165 18.9613 14.22L18.9633 14.2213L19.3327 13.6667L19.702 13.112L19.7013 13.1113L19.6993 13.11L19.6947 13.1067L19.6813 13.098C19.6165 13.0568 19.5504 13.0175 19.4833 12.98C19.3089 12.8831 19.1293 12.7958 18.9453 12.7187C18.5033 12.532 17.87 12.3333 17.166 12.3333H16.666V11.3333H23.9993V20H18.9993C18.9993 19.6253 18.8207 19.2967 18.642 19.058C18.4403 18.7979 18.2016 18.5688 17.9333 18.378C17.5515 18.0972 17.1222 17.8874 16.666 17.7587V16.3333ZM17.6613 20C17.6388 19.9494 17.6099 19.9019 17.5753 19.8587C17.4532 19.7047 17.3095 19.569 17.1487 19.456C16.7647 19.176 16.3287 19.008 16.0207 19C15.658 19.0307 15.2027 19.2167 14.8293 19.4847C14.6427 19.618 14.5027 19.754 14.416 19.8693C14.384 19.9093 14.3573 19.9532 14.3367 20H17.6613Z" fill="#7859BA"/>
</svg>
