<svg xmlns="http://www.w3.org/2000/svg" width="165.271" height="50.773" viewBox="0 0 165.271 50.773">
  <g id="logo" transform="translate(-0.496 -0.752)">
    <path id="Path_556" data-name="Path 556" d="M56.666,30.7c2.888,0,4.705-1.4,4.705-3.145,0-4.659-7.1-2.376-7.1-5.73a2.191,2.191,0,0,1,2.4-2.027c2.865,0,2.283,2.842,3.61,2.842a.816.816,0,0,0,.838-.815c0-1.258-1.654-2.749-4.542-2.749-2.562,0-4.379,1.4-4.379,3.191,0,4.589,7.128,2.283,7.128,5.707,0,1.328-1.165,2.05-2.655,2.05-3.121,0-2.376-2.842-3.82-2.842a.82.82,0,0,0-.908.862C51.938,29.135,53.568,30.7,56.666,30.7Zm15.858-2.073-.466-4.635c-.3-3.075-2.027-4.915-4.892-4.915-2.539,0-4.123,1.3-4.123,2.539a.821.821,0,0,0,.908.862c1.165,0,.792-2.655,3.214-2.655,1.864,0,2.609,1.491,2.865,4.239l.047.629a4.185,4.185,0,0,0-2.865-.932c-2.422,0-4.286,1.211-4.263,3.447,0,2.236,1.77,3.517,4.333,3.517a3.554,3.554,0,0,0,3.354-1.631c.093,1.281.652,1.537,1.7,1.537.862,0,1.491-.14,1.491-.489C73.828,29.554,72.664,30.067,72.524,28.623ZM67.8,29.974A2.839,2.839,0,0,1,65,26.922a2.693,2.693,0,0,1,5.241-.559l.093,1.048A2.426,2.426,0,0,1,67.8,29.974Zm16.489-1.351-.466-4.635c-.3-3.075-2.026-4.915-4.892-4.915-2.539,0-4.123,1.3-4.123,2.539a.821.821,0,0,0,.908.862c1.165,0,.792-2.655,3.214-2.655,1.863,0,2.609,1.491,2.865,4.239l.047.629a4.184,4.184,0,0,0-2.865-.932c-2.423,0-4.286,1.211-4.263,3.447,0,2.236,1.77,3.517,4.333,3.517A3.554,3.554,0,0,0,82.4,29.089c.093,1.281.652,1.537,1.7,1.537.862,0,1.491-.14,1.491-.489C85.589,29.554,84.424,30.067,84.284,28.623Zm-4.728,1.351a2.839,2.839,0,0,1-2.8-3.051A2.693,2.693,0,0,1,82,26.363l.093,1.048A2.426,2.426,0,0,1,79.556,29.974Zm11.062.745A2.856,2.856,0,0,0,93.6,27.877c0-.419-.559-.443-.7-.093a1.585,1.585,0,0,1-1.724,1.4c-.862,0-1.467-.676-1.467-1.957V20.237h3.214a.343.343,0,0,0,.35-.349v-.233a.358.358,0,0,0-.35-.349H89.71l-.023-2.213c0-.3-.093-.466-.373-.466h-.233c-.21,0-.373.163-.4.466-.116,1.328-.652,2.213-1.77,2.213h-.838a.319.319,0,0,0-.349.349v.233a.33.33,0,0,0,.349.349h1.537V27.2C87.614,29.578,88.825,30.719,90.618,30.719Zm15.058-1.91-.256-4.682c-.21-3.517-2.12-5.055-4.4-5.055a4.066,4.066,0,0,0-3.471,1.84l.047-7.547c0-.349-.256-.512-.675-.3l-1.91.839c-.21.093-.326.21-.326.4v.07c0,.373.885.419.885,1.328V28.856c0,.815-.862.792-.862,1.258v.07c0,.186.163.3.443.3h2.912c.279,0,.489-.116.489-.3v-.07c0-.466-.932-.443-.932-1.258V23.2a2.964,2.964,0,0,1,2.912-3.214c1.607,0,2.749,1.351,2.865,4.1l.233,4.752c.047.815-.839.838-.839,1.281v.093c0,.186.186.279.466.279h2.8c.279,0,.466-.093.466-.279v-.093C106.515,29.671,105.746,29.648,105.676,28.809Zm4.038,1.91a1.4,1.4,0,1,0,0-2.8,1.4,1.4,0,1,0,0,2.8Zm8.736,0a4.412,4.412,0,0,0,4.565-3.471c.093-.466-.488-.536-.676-.186a3.516,3.516,0,0,1-3.237,2.19c-2.586,0-4.426-2.073-4.426-5.334,0-2.306,1.374-4.1,3.308-4.1,2.656.023,2.633,2.912,3.983,2.958a.786.786,0,0,0,.932-.815c0-1.3-2-2.912-4.542-2.888a5.561,5.561,0,0,0-5.73,5.753A5.768,5.768,0,0,0,118.45,30.719Zm15.628-2.1-.467-4.635c-.3-3.075-2.026-4.915-4.891-4.915-2.539,0-4.122,1.3-4.122,2.539a.82.82,0,0,0,.908.862c1.164,0,.792-2.655,3.214-2.655,1.863,0,2.609,1.491,2.865,4.239l.047.629a4.187,4.187,0,0,0-2.865-.932c-2.423,0-4.287,1.211-4.264,3.447,0,2.236,1.771,3.517,4.333,3.517a3.554,3.554,0,0,0,3.355-1.631c.093,1.281.652,1.537,1.7,1.537.861,0,1.491-.14,1.491-.489C135.382,29.554,134.217,30.067,134.078,28.623Zm-4.729,1.351a2.839,2.839,0,0,1-2.795-3.051,2.692,2.692,0,0,1,5.24-.559l.093,1.048A2.425,2.425,0,0,1,129.349,29.974Zm12.738-10.9a3.064,3.064,0,0,0-3.028,2.283V19.492c0-.349-.163-.536-.606-.326l-1.77.792c-.209.117-.349.256-.349.419v.047c0,.443.932.466.932,1.351v7.081c0,.815-.862.838-.862,1.258v.093c0,.186.163.279.465.279h2.888c.3,0,.467-.093.467-.279v-.093c0-.419-.978-.443-.978-1.258V23.545c0-1.747.7-3.214,1.979-3.214,1.445,0,.862,1.631,2.073,1.631.653,0,.932-.489.932-1.095C144.23,19.888,143.484,19.073,142.087,19.073ZM154.341,27.2a3.476,3.476,0,0,1-3.332,2.027,3.929,3.929,0,0,1-3.843-3.215l6.452-2.12a1.351,1.351,0,0,0,1.1-1.374c0-1.607-1.538-3.447-4.333-3.447a5.5,5.5,0,0,0-5.5,5.73c0,3.634,2.4,5.916,5.4,5.916a4.593,4.593,0,0,0,4.728-3.331C155.086,26.946,154.551,26.876,154.341,27.2Zm-4.31-7.384a3,3,0,0,1,2.725,2.749.8.8,0,0,1-.558.815L147,25.245a6.445,6.445,0,0,1-.093-1.188C146.91,21.681,148.145,19.818,150.032,19.818Z" transform="translate(10.745 2.552)" fill="#ba2755"/>
    <path id="Path_557" data-name="Path 557" d="M21.532,1.051A25.266,25.266,0,0,0,8.223,7.933,25.026,25.026,0,0,0,.735,23.247a15.379,15.379,0,0,0,0,5.4A24.368,24.368,0,0,0,7.674,43.471c3.428,3.556,6.76,5.533,12.153,7.21a23.27,23.27,0,0,0,12.085.1A25.746,25.746,0,0,0,50.442,32.673a29.273,29.273,0,0,0,.594-10.414,24.681,24.681,0,0,0-2.526-7.753,26.114,26.114,0,0,0-8.36-9.359,31.265,31.265,0,0,0-6.331-3.116A27.959,27.959,0,0,0,21.532,1.051Zm2.015,1.782A23.476,23.476,0,0,0,9.31,9.711,21.506,21.506,0,0,0,3.721,18.6a18.547,18.547,0,0,0-1.106,7.722,16.914,16.914,0,0,0,.529,5.468A23.277,23.277,0,0,0,10.576,43.85c3.179,2.732,9.743,5.45,13.165,5.45h.714V45.923l-.655-.264a29.274,29.274,0,0,1-8.333-5.078,22.492,22.492,0,0,1-4.722-6.307,20.206,20.206,0,0,1-1.5-4.019c-.342-1.323-.417-1.436-1.192-1.814a3.516,3.516,0,0,1-1.726-2.909,4.682,4.682,0,0,1,1.32-2.852,3.627,3.627,0,0,1,3.645-.065,4.2,4.2,0,0,1,1.566,2.417,3.935,3.935,0,0,1-1.422,3.154c-.6.274-.6.359.043,2.3A20.557,20.557,0,0,0,22.339,42.7c.776.386,1.616.766,1.868.844.448.139.455.118.331-1.032-.237-2.206-.794-3.436-2.912-6.432a38.64,38.64,0,0,1-4.279-7.841,13.66,13.66,0,0,1-1.194-5.982,8.138,8.138,0,0,0-.139-2.18c-.317,0-.828-1.469-.828-2.378a3.317,3.317,0,0,1,4.828-2.866,3.411,3.411,0,0,1,.634,5.6,2.714,2.714,0,0,1-1.834.694c-.477.053-.507.131-.566,1.467a10.379,10.379,0,0,0,.914,4.635c.846,2.354,3.56,7.337,4,7.35.327.009,1.242-3.785,2.088-8.66a55,55,0,0,0,.405-9.674c-.093-1.275-.175-2.523-.182-2.774-.009-.353-.255-.563-1.088-.932a3.04,3.04,0,0,1-2.027-3.154,2.842,2.842,0,0,1,1.524-2.734,3.286,3.286,0,0,1,5.006,2.784,2.933,2.933,0,0,1-.952,2.408c-.444.476-.486.657-.381,1.612A57.988,57.988,0,0,1,27.692,23a60.744,60.744,0,0,1-2.41,12.136q-.77,2.272-.108,2.274a21.244,21.244,0,0,0,3.855-3.656,23.691,23.691,0,0,0,4.556-9.243,27.137,27.137,0,0,0,.842-4.837l.116-1.512-.655-.4a3.778,3.778,0,0,1-1.572-2.678,3.956,3.956,0,0,1,1.5-2.768,2.478,2.478,0,0,1,1.775-.542A3.08,3.08,0,0,1,38.965,14.9a2.945,2.945,0,0,1-1.407,2.768c-.871.54-.914.655-1.2,3.211-.8,7.132-3.3,12.107-8.658,17.246L26,39.756l.234.671a4.831,4.831,0,0,1,.234,1.321c0,1.024.23,1.91.5,1.91a24.59,24.59,0,0,0,4.991-2.687,28.327,28.327,0,0,0,5.524-5.3,21.619,21.619,0,0,0,2.695-4.915,2.583,2.583,0,0,0-.591-.917,3.467,3.467,0,0,1-.073-4.33,3.128,3.128,0,0,1,2.665-1.2,3.221,3.221,0,0,1,3.243,2.551A3.433,3.433,0,0,1,43.1,30.82c-.686.237-.856.429-1.3,1.471A25.7,25.7,0,0,1,29.09,44.99c-1.053.5-2.051.986-2.217,1.072-.22.114-.318.576-.361,1.7L26.453,49.3h1.226a22.7,22.7,0,0,0,8.564-2.252,23.8,23.8,0,0,0,10.24-9.957,25.027,25.027,0,0,0,2.151-5.513,26.409,26.409,0,0,0,.436-7.823,18.623,18.623,0,0,0-1.552-6.329A24.332,24.332,0,0,0,35.627,4.906,25.467,25.467,0,0,0,27.9,2.756,11.23,11.23,0,0,0,23.548,2.833ZM24.87,8.539a1.294,1.294,0,0,0-.107,1.871c1.008,1.114,2.773-.472,1.858-1.67A1.247,1.247,0,0,0,24.87,8.539Zm10.145,5.445a1.275,1.275,0,0,0-.45,1.552,1.235,1.235,0,1,0,.45-1.552ZM17.6,17.054a1.144,1.144,0,0,0,.867,2.015,1.142,1.142,0,0,0,.938-1.977A1.211,1.211,0,0,0,17.6,17.054ZM8.533,24.712A1.074,1.074,0,0,0,8.5,26.327,1.3,1.3,0,0,0,10.75,25.5a1.452,1.452,0,0,0-1.31-1.187A1.5,1.5,0,0,0,8.533,24.712Zm32.9,1.858a1.39,1.39,0,0,0-.1,2.1,1.194,1.194,0,0,0,1.942-1.032C43.278,26.547,42.461,26.075,41.434,26.57Z" transform="translate(0)" fill="#ba2755" fill-rule="evenodd"/>
  </g>
</svg>
