<svg xmlns="http://www.w3.org/2000/svg" width="136.714" height="42" viewBox="0 0 136.714 42">
  <g id="SClogo" transform="translate(-0.496 -0.752)">
    <path id="Path_556" data-name="Path 556" d="M55.849,27.633c2.389,0,3.892-1.156,3.892-2.6,0-3.854-5.877-1.965-5.877-4.74a1.812,1.812,0,0,1,1.985-1.676c2.37,0,1.888,2.351,2.987,2.351a.675.675,0,0,0,.694-.674c0-1.04-1.368-2.274-3.757-2.274-2.12,0-3.622,1.156-3.622,2.64,0,3.8,5.9,1.888,5.9,4.721,0,1.1-.963,1.7-2.2,1.7-2.582,0-1.965-2.351-3.16-2.351a.678.678,0,0,0-.751.713C51.938,26.342,53.287,27.633,55.849,27.633Zm13.118-1.715-.385-3.834c-.251-2.543-1.676-4.066-4.046-4.066-2.1,0-3.41,1.079-3.41,2.1a.679.679,0,0,0,.751.713c.963,0,.655-2.2,2.659-2.2,1.541,0,2.158,1.233,2.37,3.507l.039.52a3.462,3.462,0,0,0-2.37-.771c-2,0-3.545,1-3.526,2.852,0,1.85,1.464,2.91,3.584,2.91A2.94,2.94,0,0,0,67.406,26.3c.077,1.06.539,1.272,1.407,1.272.713,0,1.233-.116,1.233-.4C70.046,26.689,69.083,27.113,68.967,25.918Zm-3.911,1.118a2.349,2.349,0,0,1-2.312-2.524,2.227,2.227,0,0,1,4.335-.462l.077.867A2.006,2.006,0,0,1,65.056,27.036ZM78.7,25.918l-.385-3.834c-.25-2.543-1.676-4.066-4.046-4.066-2.1,0-3.41,1.079-3.41,2.1a.679.679,0,0,0,.752.713c.963,0,.655-2.2,2.659-2.2,1.542,0,2.158,1.233,2.37,3.507l.038.52a3.461,3.461,0,0,0-2.37-.771c-2,0-3.545,1-3.526,2.852,0,1.85,1.464,2.91,3.584,2.91A2.94,2.94,0,0,0,77.134,26.3c.077,1.06.54,1.272,1.407,1.272.713,0,1.233-.116,1.233-.4C79.774,26.689,78.811,27.113,78.7,25.918Zm-3.911,1.118a2.349,2.349,0,0,1-2.312-2.524,2.227,2.227,0,0,1,4.335-.462l.077.867A2.007,2.007,0,0,1,74.784,27.036Zm9.151.617A2.363,2.363,0,0,0,86.4,25.3c0-.347-.462-.366-.578-.077A1.312,1.312,0,0,1,84.4,26.381c-.713,0-1.214-.559-1.214-1.619v-5.78h2.659a.284.284,0,0,0,.289-.289V18.5a.3.3,0,0,0-.289-.289H83.183l-.019-1.83c0-.25-.077-.385-.308-.385h-.193c-.173,0-.308.135-.328.385-.1,1.1-.54,1.83-1.464,1.83h-.694a.264.264,0,0,0-.289.289v.193a.273.273,0,0,0,.289.289h1.272v5.761C81.449,26.708,82.451,27.652,83.935,27.652Zm12.456-1.58L96.179,22.2c-.174-2.91-1.753-4.181-3.642-4.181a3.363,3.363,0,0,0-2.871,1.522L89.7,13.3c0-.289-.212-.424-.559-.251l-1.58.694c-.173.077-.27.173-.27.328v.058c0,.308.732.347.732,1.1V26.111c0,.674-.713.655-.713,1.04v.058c0,.154.135.25.366.25H90.09c.231,0,.4-.1.4-.25v-.058c0-.385-.771-.366-.771-1.04V21.429a2.452,2.452,0,0,1,2.409-2.659c1.329,0,2.274,1.118,2.37,3.391l.193,3.931c.038.674-.694.694-.694,1.06v.077c0,.154.154.231.385.231H96.7c.231,0,.385-.077.385-.231v-.077C97.084,26.785,96.448,26.766,96.391,26.072Zm3.34,1.58a1.157,1.157,0,1,0,0-2.312,1.159,1.159,0,1,0,0,2.312Zm7.226,0a3.65,3.65,0,0,0,3.776-2.871c.077-.385-.4-.443-.559-.154a2.908,2.908,0,0,1-2.678,1.811c-2.139,0-3.661-1.715-3.661-4.412,0-1.907,1.137-3.391,2.736-3.391,2.2.019,2.178,2.408,3.295,2.447a.65.65,0,0,0,.771-.674c0-1.079-1.657-2.409-3.757-2.389a4.6,4.6,0,0,0-4.74,4.759A4.771,4.771,0,0,0,106.957,27.652Zm12.928-1.734-.386-3.834c-.25-2.543-1.676-4.066-4.046-4.066-2.1,0-3.41,1.079-3.41,2.1a.679.679,0,0,0,.751.713c.963,0,.655-2.2,2.659-2.2,1.541,0,2.158,1.233,2.37,3.507l.039.52a3.463,3.463,0,0,0-2.37-.771c-2,0-3.546,1-3.527,2.852,0,1.85,1.465,2.91,3.584,2.91a2.94,2.94,0,0,0,2.775-1.349c.077,1.06.539,1.272,1.407,1.272.712,0,1.233-.116,1.233-.4C120.964,26.689,120,27.113,119.885,25.918Zm-3.912,1.118a2.349,2.349,0,0,1-2.312-2.524A2.227,2.227,0,0,1,118,24.049l.077.867A2.006,2.006,0,0,1,115.973,27.036Zm10.537-9.017A2.535,2.535,0,0,0,124,19.906V18.365c0-.289-.135-.443-.5-.27l-1.464.655c-.173.1-.289.212-.289.347v.039c0,.366.771.385.771,1.118v5.858c0,.674-.713.694-.713,1.04v.077c0,.154.135.231.385.231h2.389c.251,0,.386-.077.386-.231v-.077c0-.347-.809-.366-.809-1.04V21.718c0-1.445.578-2.659,1.637-2.659,1.195,0,.713,1.349,1.715,1.349.54,0,.771-.4.771-.906C128.283,18.692,127.666,18.018,126.51,18.018Zm10.137,6.725a2.875,2.875,0,0,1-2.756,1.676,3.25,3.25,0,0,1-3.179-2.659l5.337-1.753a1.118,1.118,0,0,0,.906-1.137c0-1.33-1.272-2.852-3.584-2.852a4.553,4.553,0,0,0-4.547,4.74c0,3.006,1.984,4.894,4.47,4.894a3.8,3.8,0,0,0,3.911-2.755C137.263,24.531,136.82,24.473,136.647,24.743Zm-3.565-6.108a2.479,2.479,0,0,1,2.254,2.274.658.658,0,0,1-.462.674l-4.3,1.542a5.332,5.332,0,0,1-.077-.983C130.5,20.176,131.521,18.635,133.082,18.635Z" fill="#ba2755"/>
    <path id="Path_557" data-name="Path 557" d="M17.9,1A20.9,20.9,0,0,0,6.888,6.692,20.7,20.7,0,0,0,.694,19.361a12.722,12.722,0,0,0,0,4.469,20.157,20.157,0,0,0,5.74,12.26,21.408,21.408,0,0,0,10.053,5.964,19.249,19.249,0,0,0,10,.082A21.3,21.3,0,0,0,41.812,27.157a24.214,24.214,0,0,0,.492-8.615,20.417,20.417,0,0,0-2.09-6.414A21.6,21.6,0,0,0,33.3,4.388,25.863,25.863,0,0,0,28.061,1.81,23.128,23.128,0,0,0,17.9,1Zm1.667,1.474A19.419,19.419,0,0,0,7.787,8.163a17.79,17.79,0,0,0-4.623,7.355,15.342,15.342,0,0,0-.915,6.388,13.991,13.991,0,0,0,.438,4.523A19.255,19.255,0,0,0,8.835,36.4c2.63,2.26,8.059,4.508,10.89,4.508h.59V38.118l-.542-.218a24.216,24.216,0,0,1-6.893-4.2,18.606,18.606,0,0,1-3.906-5.217,16.715,16.715,0,0,1-1.242-3.324c-.283-1.094-.345-1.188-.986-1.5A2.908,2.908,0,0,1,5.318,21.25a3.873,3.873,0,0,1,1.092-2.359,3,3,0,0,1,3.016-.054,3.476,3.476,0,0,1,1.3,2,3.255,3.255,0,0,1-1.177,2.609c-.5.227-.5.3.035,1.9a17.005,17.005,0,0,0,8.985,10.106c.642.32,1.337.634,1.545.7.371.115.376.1.274-.853-.2-1.824-.657-2.842-2.409-5.321a31.963,31.963,0,0,1-3.54-6.486,11.3,11.3,0,0,1-.988-4.948,6.732,6.732,0,0,0-.115-1.8c-.262,0-.685-1.216-.685-1.968A2.744,2.744,0,0,1,16.64,12.4a2.822,2.822,0,0,1,.524,4.634,2.245,2.245,0,0,1-1.517.574c-.395.044-.419.108-.468,1.214a8.585,8.585,0,0,0,.756,3.834c.7,1.947,2.944,6.069,3.31,6.08.27.008,1.027-3.131,1.727-7.163a45.493,45.493,0,0,0,.335-8c-.077-1.054-.145-2.087-.15-2.295-.007-.292-.211-.466-.9-.771A2.514,2.514,0,0,1,18.581,7.9a2.351,2.351,0,0,1,1.26-2.261,2.718,2.718,0,0,1,4.141,2.3,2.426,2.426,0,0,1-.788,1.992c-.367.394-.4.544-.315,1.334a47.968,47.968,0,0,1,.114,7.892A50.248,50.248,0,0,1,21,29.194q-.637,1.88-.089,1.881A17.574,17.574,0,0,0,24.1,28.051a19.6,19.6,0,0,0,3.769-7.646,22.448,22.448,0,0,0,.7-4l.1-1.25-.542-.333a3.125,3.125,0,0,1-1.3-2.216,3.272,3.272,0,0,1,1.238-2.29,2.05,2.05,0,0,1,1.468-.448,2.548,2.548,0,0,1,2.792,2.591,2.436,2.436,0,0,1-1.164,2.29c-.721.447-.756.542-.993,2.656A21.415,21.415,0,0,1,23,31.671l-1.4,1.346.193.555a4,4,0,0,1,.193,1.093c0,.847.19,1.58.41,1.58a20.34,20.34,0,0,0,4.128-2.222,23.432,23.432,0,0,0,4.569-4.386,17.884,17.884,0,0,0,2.229-4.065,2.137,2.137,0,0,0-.489-.759,2.868,2.868,0,0,1-.061-3.582,2.588,2.588,0,0,1,2.2-.99,2.664,2.664,0,0,1,2.682,2.11,2.84,2.84,0,0,1-1.915,3.276c-.567.2-.708.355-1.079,1.217a21.263,21.263,0,0,1-10.513,10.5c-.871.416-1.7.815-1.834.887-.182.094-.263.476-.3,1.4l-.049,1.275h1.014a18.778,18.778,0,0,0,7.084-1.863,19.686,19.686,0,0,0,8.47-8.236,20.7,20.7,0,0,0,1.779-4.56,21.846,21.846,0,0,0,.361-6.471,15.405,15.405,0,0,0-1.284-5.235A20.128,20.128,0,0,0,29.557,4.188,21.067,21.067,0,0,0,23.164,2.41,9.29,9.29,0,0,0,19.565,2.474Zm1.094,4.72a1.07,1.07,0,0,0-.089,1.548c.834.922,2.294-.391,1.537-1.382A1.032,1.032,0,0,0,20.659,7.193Zm8.392,4.5a1.054,1.054,0,0,0-.372,1.284,1.022,1.022,0,1,0,.372-1.284Zm-14.4,2.54a.947.947,0,0,0,.718,1.667.945.945,0,0,0,.776-1.636A1,1,0,0,0,14.647,14.237Zm-7.5,6.335a.888.888,0,0,0-.032,1.336,1.078,1.078,0,0,0,1.866-.688,1.2,1.2,0,0,0-1.084-.982A1.24,1.24,0,0,0,7.145,20.572ZM34.36,22.109a1.15,1.15,0,0,0-.081,1.734.987.987,0,0,0,1.606-.854C35.886,22.09,35.21,21.7,34.36,22.109Z" fill="#ba2755" fill-rule="evenodd"/>
  </g>
</svg>
