<svg width="161" height="28" viewBox="0 0 161 28" fill="none" xmlns="http://www.w3.org/2000/svg">
<path fill-rule="evenodd" clip-rule="evenodd" d="M5.16285 0L21.5182 9.44011C20.6263 11.0229 17.8363 14.2939 13.8116 14.716C16.2234 16.4307 17.5989 19.2194 17.7497 21.0848C17.9004 22.9502 18.0135 24.9098 16.393 28C14.7349 27.0956 4.77344 21.3423 0 18.5787C0.640646 17.1655 2.92436 14.4371 6.5572 13.5478C8.20027 14.6934 8.74922 15.0929 8.81831 15.1494C7.65007 15.4069 4.94051 16.3176 3.44818 17.9004C4.98573 18.8048 11.9901 22.8371 15.3001 24.7402C15.79 23.013 15.9596 18.997 12.7187 16.751C12.1074 16.3274 11.4867 15.9205 10.8718 15.5174C7.41131 13.2489 4.13365 11.1003 3.74966 6.76447C3.50471 3.25976 4.31494 1.6393 5.16285 0ZM10.9848 12.7564C12.6053 12.7375 16.3022 12.1949 18.1261 10.175C14.3878 7.97415 8.65463 4.66038 6.25535 3.27859C5.58329 5.36383 5.58832 10.1787 10.9848 12.7564Z" fill="#BA4A6A"/>
<path d="M36.4554 26.4806C35.2402 26.4806 34.1793 26.2781 33.2727 25.873C32.3854 25.4679 31.6718 24.9085 31.1317 24.1949C30.6109 23.4619 30.2926 22.6035 30.1769 21.6198H32.6651C32.7616 22.1213 32.9641 22.5842 33.2727 23.0086C33.5814 23.4329 33.9961 23.7801 34.5169 24.0502C35.057 24.3009 35.7128 24.4263 36.4843 24.4263C37.1594 24.4263 37.7188 24.3299 38.1625 24.137C38.6061 23.9248 38.934 23.6451 39.1462 23.2979C39.3777 22.9507 39.4934 22.5746 39.4934 22.1695C39.4934 21.5716 39.3487 21.1183 39.0594 20.8097C38.7894 20.501 38.3843 20.2599 37.8442 20.0863C37.3041 19.8934 36.6483 19.7295 35.8767 19.5945C35.2402 19.4787 34.6133 19.3244 33.9961 19.1315C33.3788 18.9386 32.8291 18.6879 32.3469 18.3793C31.8646 18.0513 31.4789 17.6559 31.1895 17.193C30.9195 16.7301 30.7845 16.161 30.7845 15.4859C30.7845 14.6565 30.9966 13.9235 31.421 13.287C31.8454 12.6312 32.453 12.12 33.2438 11.7535C34.0539 11.387 34.9894 11.2038 36.0503 11.2038C37.6127 11.2038 38.8762 11.5799 39.8406 12.3322C40.805 13.0845 41.3741 14.1743 41.5477 15.6017H39.1462C39.0498 14.8687 38.7315 14.2997 38.1914 13.8946C37.6706 13.4702 36.9473 13.2581 36.0214 13.2581C35.1148 13.2581 34.4204 13.4413 33.9382 13.8078C33.4753 14.1743 33.2438 14.6565 33.2438 15.2545C33.2438 15.6402 33.3692 15.9874 33.6199 16.2961C33.89 16.5854 34.2758 16.8361 34.7773 17.0483C35.2981 17.2605 35.9346 17.4341 36.6869 17.5691C37.6513 17.7427 38.529 17.9742 39.3198 18.2635C40.1106 18.5529 40.7472 18.9869 41.2294 19.5655C41.7309 20.1249 41.9817 20.9254 41.9817 21.967C41.9817 22.8736 41.7502 23.6644 41.2873 24.3395C40.8436 25.0146 40.2071 25.5451 39.3777 25.9309C38.5482 26.2973 37.5742 26.4806 36.4554 26.4806Z" fill="#3D3D3D"/>
<path d="M49.6476 26.4806C48.471 26.4806 47.4873 26.2781 46.6964 25.873C45.9056 25.4486 45.3173 24.8989 44.9315 24.2238C44.5457 23.5294 44.3528 22.7771 44.3528 21.967C44.3528 20.9833 44.6036 20.1538 45.1051 19.4787C45.6259 18.7843 46.3492 18.2635 47.2751 17.9163C48.2203 17.5498 49.3294 17.3666 50.6024 17.3666H54.4506C54.4506 16.46 54.3059 15.7077 54.0166 15.1098C53.7465 14.4925 53.3415 14.0296 52.8014 13.721C52.2806 13.4124 51.6248 13.2581 50.8339 13.2581C49.908 13.2581 49.1076 13.4895 48.4324 13.9525C47.7573 14.4154 47.3426 15.1001 47.1883 16.0067H44.7C44.8158 14.9651 45.163 14.0971 45.7416 13.4027C46.3396 12.689 47.0919 12.1489 47.9984 11.7825C48.905 11.3967 49.8502 11.2038 50.8339 11.2038C52.1841 11.2038 53.3029 11.4545 54.1902 11.9561C55.0968 12.4383 55.7719 13.123 56.2155 14.0103C56.6592 14.8783 56.881 15.9103 56.881 17.1062V26.1334H54.711L54.5663 23.5583C54.3734 23.9634 54.1227 24.3492 53.814 24.7157C53.5247 25.0629 53.1775 25.3715 52.7724 25.6415C52.3674 25.8923 51.9044 26.0948 51.3836 26.2491C50.8821 26.4034 50.3035 26.4806 49.6476 26.4806ZM50.0238 24.4263C50.6989 24.4263 51.3065 24.2913 51.8466 24.0213C52.406 23.7319 52.8785 23.3461 53.2643 22.8639C53.6501 22.3624 53.9394 21.8127 54.1323 21.2147C54.3445 20.6168 54.4506 19.9899 54.4506 19.3341V19.2473H50.805C49.8598 19.2473 49.0979 19.363 48.5192 19.5945C47.9406 19.8066 47.5259 20.1153 47.2751 20.5203C47.0244 20.9061 46.899 21.3497 46.899 21.8513C46.899 22.3721 47.0147 22.8253 47.2462 23.2111C47.4969 23.5969 47.8538 23.8959 48.3167 24.1081C48.7989 24.3202 49.368 24.4263 50.0238 24.4263Z" fill="#3D3D3D"/>
<path d="M64.8071 26.4806C63.6305 26.4806 62.6468 26.2781 61.8559 25.873C61.0651 25.4486 60.4768 24.8989 60.091 24.2238C59.7052 23.5294 59.5123 22.7771 59.5123 21.967C59.5123 20.9833 59.7631 20.1538 60.2646 19.4787C60.7854 18.7843 61.5087 18.2635 62.4346 17.9163C63.3798 17.5498 64.4889 17.3666 65.7619 17.3666H69.6101C69.6101 16.46 69.4654 15.7077 69.1761 15.1098C68.906 14.4925 68.501 14.0296 67.9609 13.721C67.4401 13.4124 66.7842 13.2581 65.9934 13.2581C65.0675 13.2581 64.267 13.4895 63.5919 13.9525C62.9168 14.4154 62.5021 15.1001 62.3478 16.0067H59.8595C59.9753 14.9651 60.3225 14.0971 60.9011 13.4027C61.4991 12.689 62.2514 12.1489 63.1579 11.7825C64.0645 11.3967 65.0097 11.2038 65.9934 11.2038C67.3436 11.2038 68.4624 11.4545 69.3497 11.9561C70.2562 12.4383 70.9314 13.123 71.375 14.0103C71.8186 14.8783 72.0405 15.9103 72.0405 17.1062V26.1334H69.8705L69.7258 23.5583C69.5329 23.9634 69.2822 24.3492 68.9735 24.7157C68.6842 25.0629 68.337 25.3715 67.9319 25.6415C67.5269 25.8923 67.0639 26.0948 66.5431 26.2491C66.0416 26.4034 65.463 26.4806 64.8071 26.4806ZM65.1833 24.4263C65.8584 24.4263 66.466 24.2913 67.0061 24.0213C67.5654 23.7319 68.038 23.3461 68.4238 22.8639C68.8096 22.3624 69.0989 21.8127 69.2918 21.2147C69.504 20.6168 69.6101 19.9899 69.6101 19.3341V19.2473H65.9645C65.0193 19.2473 64.2574 19.363 63.6787 19.5945C63.1001 19.8066 62.6854 20.1153 62.4346 20.5203C62.1838 20.9061 62.0585 21.3497 62.0585 21.8513C62.0585 22.3721 62.1742 22.8253 62.4057 23.2111C62.6564 23.5969 63.0133 23.8959 63.4762 24.1081C63.9584 24.3202 64.5274 24.4263 65.1833 24.4263Z" fill="#3D3D3D"/>
<path d="M80.5548 26.1334C79.6868 26.1334 78.9345 25.9984 78.298 25.7283C77.6614 25.4583 77.1696 25.005 76.8224 24.3685C76.4945 23.7126 76.3305 22.835 76.3305 21.7355V13.6053H73.7844V11.551H76.3305L76.6488 8.02112H78.7609V11.551H82.9852V13.6053H78.7609V21.7355C78.7609 22.6421 78.9442 23.2593 79.3106 23.5873C79.6771 23.8959 80.3233 24.0502 81.2492 24.0502H82.8116V26.1334H80.5548Z" fill="#3D3D3D"/>
<path d="M85.5776 26.1334V5.30139H88.008V14.0103C88.4903 13.1423 89.1654 12.4576 90.0334 11.9561C90.9207 11.4545 91.8851 11.2038 92.9267 11.2038C94.0455 11.2038 95.0196 11.4353 95.849 11.8982C96.6784 12.3418 97.3149 13.0266 97.7586 13.9525C98.2022 14.8783 98.424 16.0453 98.424 17.4534V26.1334H96.0226V17.7138C96.0226 16.2478 95.714 15.1484 95.0967 14.4154C94.4795 13.6631 93.5825 13.287 92.4059 13.287C91.5765 13.287 90.8242 13.4895 90.1491 13.8946C89.4933 14.2997 88.9725 14.8783 88.5867 15.6306C88.2009 16.3829 88.008 17.3087 88.008 18.4082V26.1334H85.5776Z" fill="#3D3D3D"/>
<path d="M103.088 26.2781C102.606 26.2781 102.201 26.1237 101.873 25.8151C101.564 25.4872 101.41 25.0918 101.41 24.6289C101.41 24.1659 101.564 23.7801 101.873 23.4715C102.201 23.1436 102.606 22.9797 103.088 22.9797C103.57 22.9797 103.966 23.1436 104.274 23.4715C104.583 23.7801 104.737 24.1659 104.737 24.6289C104.737 25.0918 104.583 25.4872 104.274 25.8151C103.966 26.1237 103.57 26.2781 103.088 26.2781Z" fill="#BA4A6A"/>
<path d="M113.366 26.4806C111.997 26.4806 110.762 26.1623 109.663 25.5258C108.583 24.8893 107.734 24.002 107.117 22.8639C106.499 21.7066 106.191 20.3757 106.191 18.8711C106.191 17.328 106.499 15.9874 107.117 14.8494C107.734 13.7113 108.583 12.8241 109.663 12.1875C110.762 11.5317 111.997 11.2038 113.366 11.2038C115.102 11.2038 116.549 11.6571 117.706 12.5637C118.864 13.4509 119.597 14.6469 119.905 16.1514H117.417C117.224 15.2448 116.752 14.5408 115.999 14.0393C115.247 13.5377 114.36 13.287 113.337 13.287C112.508 13.287 111.736 13.4992 111.023 13.9235C110.309 14.3286 109.74 14.9458 109.316 15.7753C108.891 16.6047 108.679 17.627 108.679 18.8422C108.679 19.7488 108.804 20.5589 109.055 21.2726C109.306 21.967 109.644 22.5457 110.068 23.0086C110.492 23.4715 110.984 23.8284 111.544 24.0791C112.122 24.3106 112.72 24.4263 113.337 24.4263C114.032 24.4263 114.659 24.3202 115.218 24.1081C115.777 23.8766 116.25 23.539 116.636 23.0954C117.022 22.6517 117.282 22.1309 117.417 21.533H119.905C119.597 22.9989 118.854 24.1949 117.677 25.1207C116.52 26.0273 115.083 26.4806 113.366 26.4806Z" fill="#3D3D3D"/>
<path d="M127.522 26.4806C126.346 26.4806 125.362 26.2781 124.571 25.873C123.78 25.4486 123.192 24.8989 122.806 24.2238C122.42 23.5294 122.228 22.7771 122.228 21.967C122.228 20.9833 122.478 20.1538 122.98 19.4787C123.501 18.7843 124.224 18.2635 125.15 17.9163C126.095 17.5498 127.204 17.3666 128.477 17.3666H132.325C132.325 16.46 132.181 15.7077 131.891 15.1098C131.621 14.4925 131.216 14.0296 130.676 13.721C130.155 13.4124 129.5 13.2581 128.709 13.2581C127.783 13.2581 126.982 13.4895 126.307 13.9525C125.632 14.4154 125.217 15.1001 125.063 16.0067H122.575C122.691 14.9651 123.038 14.0971 123.616 13.4027C124.214 12.689 124.967 12.1489 125.873 11.7825C126.78 11.3967 127.725 11.2038 128.709 11.2038C130.059 11.2038 131.178 11.4545 132.065 11.9561C132.972 12.4383 133.647 13.123 134.09 14.0103C134.534 14.8783 134.756 15.9103 134.756 17.1062V26.1334H132.586L132.441 23.5583C132.248 23.9634 131.997 24.3492 131.689 24.7157C131.399 25.0629 131.052 25.3715 130.647 25.6415C130.242 25.8923 129.779 26.0948 129.258 26.2491C128.757 26.4034 128.178 26.4806 127.522 26.4806ZM127.899 24.4263C128.574 24.4263 129.181 24.2913 129.721 24.0213C130.281 23.7319 130.753 23.3461 131.139 22.8639C131.525 22.3624 131.814 21.8127 132.007 21.2147C132.219 20.6168 132.325 19.9899 132.325 19.3341V19.2473H128.68C127.735 19.2473 126.973 19.363 126.394 19.5945C125.815 19.8066 125.401 20.1153 125.15 20.5203C124.899 20.9061 124.774 21.3497 124.774 21.8513C124.774 22.3721 124.889 22.8253 125.121 23.2111C125.372 23.5969 125.729 23.8959 126.191 24.1081C126.674 24.3202 127.243 24.4263 127.899 24.4263Z" fill="#3D3D3D"/>
<path d="M137.937 26.1334V11.551H140.136L140.309 14.3286C140.637 13.6728 141.052 13.1134 141.553 12.6505C142.074 12.1875 142.692 11.8307 143.405 11.5799C144.138 11.3292 144.968 11.2038 145.893 11.2038V13.7499H144.997C144.379 13.7499 143.791 13.8367 143.232 14.0103C142.672 14.1646 142.171 14.425 141.727 14.7915C141.303 15.158 140.965 15.6595 140.714 16.2961C140.483 16.9133 140.367 17.6849 140.367 18.6107V26.1334H137.937Z" fill="#3D3D3D"/>
<path d="M153.924 26.4806C152.555 26.4806 151.34 26.1623 150.279 25.5258C149.237 24.8893 148.417 24.002 147.819 22.8639C147.221 21.7066 146.922 20.366 146.922 18.8422C146.922 17.2991 147.212 15.9585 147.79 14.8205C148.388 13.6824 149.218 12.7951 150.279 12.1586C151.359 11.5221 152.593 11.2038 153.982 11.2038C155.41 11.2038 156.615 11.5221 157.599 12.1586C158.602 12.7951 159.364 13.6342 159.885 14.6758C160.425 15.6981 160.695 16.8265 160.695 18.061C160.695 18.2539 160.695 18.4564 160.695 18.6686C160.695 18.8808 160.685 19.1219 160.666 19.3919H148.745V17.5113H158.322C158.264 16.1803 157.821 15.1387 156.991 14.3865C156.181 13.6342 155.159 13.2581 153.924 13.2581C153.095 13.2581 152.323 13.4509 151.61 13.8367C150.915 14.2032 150.356 14.7529 149.931 15.4859C149.507 16.1996 149.295 17.0965 149.295 18.1767V18.9869C149.295 20.1828 149.507 21.1858 149.931 21.9959C150.375 22.8061 150.944 23.4137 151.639 23.8187C152.352 24.2238 153.114 24.4263 153.924 24.4263C154.947 24.4263 155.786 24.2045 156.441 23.7609C157.117 23.2979 157.599 22.6807 157.888 21.9091H160.29C160.058 22.7771 159.653 23.5583 159.074 24.2527C158.496 24.9471 157.772 25.4969 156.904 25.9019C156.056 26.2877 155.062 26.4806 153.924 26.4806Z" fill="#3D3D3D"/>
</svg>
