<svg xmlns="http://www.w3.org/2000/svg" width="16.233" height="17.009" viewBox="0 0 16.233 17.009">
  <g id="cogwheel" transform="translate(0.001 0)">
    <path id="Path_6" data-name="Path 6" d="M249,273.377a3.544,3.544,0,1,1,3.544-3.544A3.548,3.548,0,0,1,249,273.377Zm0-6.024a2.481,2.481,0,1,0,2.48,2.481A2.483,2.483,0,0,0,249,267.352Zm0,0" transform="translate(-240.882 -261.328)" fill="#242424"/>
    <path id="Path_7" data-name="Path 7" d="M9.295,17.01H6.937a1.229,1.229,0,0,1-1.191-.957l-.3-1.327a6.515,6.515,0,0,1-1.385-.8l-1.292.408a1.228,1.228,0,0,1-1.434-.559L.161,11.738a1.239,1.239,0,0,1,.227-1.512l1-.921a7.171,7.171,0,0,1-.045-.8,7.327,7.327,0,0,1,.045-.8l-1-.916a1.237,1.237,0,0,1-.236-1.51L1.34,3.234a1.229,1.229,0,0,1,1.429-.554l1.294.409a6.521,6.521,0,0,1,1.385-.8l.3-1.328A1.228,1.228,0,0,1,6.937,0H9.295a1.229,1.229,0,0,1,1.191.957l.3,1.327a6.515,6.515,0,0,1,1.385.8l1.292-.408A1.229,1.229,0,0,1,14.9,3.24l1.175,2.032a1.239,1.239,0,0,1-.228,1.512l-1,.921a7.194,7.194,0,0,1,0,1.6l1,.916,0,0a1.236,1.236,0,0,1,.231,1.506l-1.182,2.045a1.225,1.225,0,0,1-1.429.553l-1.294-.409a6.523,6.523,0,0,1-1.385.8l-.3,1.328a1.226,1.226,0,0,1-1.19.957ZM4.171,12.8a.531.531,0,0,1,.338.121,5.459,5.459,0,0,0,1.58.916.531.531,0,0,1,.335.382l.361,1.6a.159.159,0,0,0,.154.126H9.3a.158.158,0,0,0,.153-.125l.361-1.6a.531.531,0,0,1,.335-.382,5.469,5.469,0,0,0,1.58-.916.53.53,0,0,1,.5-.1l1.56.493a.159.159,0,0,0,.188-.065l1.182-2.045a.173.173,0,0,0-.034-.2l-1.2-1.1a.531.531,0,0,1-.166-.47,6.156,6.156,0,0,0,0-1.854.532.532,0,0,1,.166-.47l1.2-1.1a.173.173,0,0,0,.028-.208L13.974,3.764a.163.163,0,0,0-.193-.071l-1.558.492a.53.53,0,0,1-.5-.1,5.46,5.46,0,0,0-1.58-.916.531.531,0,0,1-.334-.382l-.361-1.6a.162.162,0,0,0-.155-.125H6.937a.158.158,0,0,0-.153.125l-.362,1.6a.532.532,0,0,1-.334.382,5.454,5.454,0,0,0-1.579.916.533.533,0,0,1-.5.1l-1.56-.493a.161.161,0,0,0-.188.065L1.081,5.8a.174.174,0,0,0,.036.207l1.195,1.1a.531.531,0,0,1,.166.47,6.155,6.155,0,0,0,0,1.854.532.532,0,0,1-.166.47L1.113,11a.173.173,0,0,0-.028.208L2.26,13.245a.163.163,0,0,0,.193.071l1.558-.492a.518.518,0,0,1,.16-.025Zm0,0" transform="translate(0 0)" fill="#242424"/>
  </g>
</svg>
