<svg xmlns="http://www.w3.org/2000/svg" width="18.95" height="19.6" viewBox="0 0 18.95 19.6">
  <g id="_211633_calendar_icon" data-name="211633_calendar_icon" transform="translate(-32 -31.5)">
    <path id="Path_1155" data-name="Path 1155" d="M49.634,64H48.243v1.722a1.885,1.885,0,0,1-2,1.662,1.954,1.954,0,0,1-2.064-1.662V64H38.768v1.722a2.071,2.071,0,0,1-4.061,0V64H33.315A1.284,1.284,0,0,0,32,65.244V80.365A1.274,1.274,0,0,0,33.315,81.6H49.634a1.275,1.275,0,0,0,1.315-1.235V65.244A1.284,1.284,0,0,0,49.634,64Zm-.715,15.054a.528.528,0,0,1-.541.508l-13.811,0a.54.54,0,0,1-.537-.516V69.258a.538.538,0,0,1,.563-.52H48.361a.533.533,0,0,1,.558.512Z" transform="translate(0 -30.497)" fill="#242424"/>
    <path id="Path_1156" data-name="Path 1156" d="M114.707,34.707a1.352,1.352,0,0,1-1.354,1.354h0A1.352,1.352,0,0,1,112,34.707V33.354A1.352,1.352,0,0,1,113.354,32h0a1.352,1.352,0,0,1,1.354,1.354Z" transform="translate(-76.616 -0.5)" fill="#242424"/>
    <path id="Path_1157" data-name="Path 1157" d="M338.707,34.707a1.352,1.352,0,0,1-1.354,1.354h0A1.352,1.352,0,0,1,336,34.707V33.354A1.352,1.352,0,0,1,337.354,32h0a1.352,1.352,0,0,1,1.354,1.354Z" transform="translate(-291.141 -0.5)" fill="#242424"/>
  </g>
</svg>
