<svg id="XMLID_10_" xmlns="http://www.w3.org/2000/svg" width="21.173" height="19.89" viewBox="0 0 21.173 19.89">
  <path id="XMLID_11_" d="M81.642,16.134l2.848-2.848V25.078a.962.962,0,0,0,1.925,0V13.286l2.848,2.848a.962.962,0,0,0,1.361-1.361l-4.491-4.491q-.034-.034-.071-.064l-.033-.024-.043-.032-.041-.025-.04-.024-.042-.02-.043-.02-.042-.015-.047-.017-.042-.011-.049-.012-.048-.007L85.547,10c-.03,0-.059,0-.089,0h-.011q-.045,0-.089,0l-.044.006-.049.008-.048.012-.043.011-.046.016-.043.016-.041.019L85,10.114l-.038.023-.043.026-.04.03-.035.026c-.023.019-.046.04-.067.061l0,0-4.491,4.491a.962.962,0,0,0,1.361,1.361Z" transform="translate(-74.866 -10)"/>
  <path id="XMLID_12_" d="M20.21,160a.962.962,0,0,0-.962.962v7.378H1.925v-7.378a.962.962,0,0,0-1.925,0V169.3a.962.962,0,0,0,.962.962H20.21a.962.962,0,0,0,.962-.962v-8.341A.962.962,0,0,0,20.21,160Z" transform="translate(0 -150.376)"/>
</svg>
