<svg xmlns="http://www.w3.org/2000/svg" width="19" height="17.848" viewBox="0 0 19 17.848">
  <g id="XMLID_10_" transform="translate(0 -10)">
    <path id="XMLID_11_" d="M81.473,15.5l2.556-2.556V23.53a.864.864,0,0,0,1.727,0V12.949L88.312,15.5a.864.864,0,0,0,1.221-1.221l-4.03-4.03q-.03-.03-.064-.057l-.029-.022-.039-.028-.037-.022L85.3,10.1l-.038-.018-.039-.018-.037-.014-.042-.015-.038-.01-.044-.011-.043-.007L84.978,10c-.027,0-.053,0-.08,0h-.01q-.04,0-.08,0l-.039.006-.044.007-.043.011-.039.01-.041.014-.039.014-.037.017-.04.019-.034.02-.038.023-.036.027-.032.024c-.021.017-.041.035-.06.055l0,0-4.03,4.03A.864.864,0,0,0,81.473,15.5Z" transform="translate(-75.393)"/>
    <path id="XMLID_12_" d="M18.136,160a.864.864,0,0,0-.864.864v6.621H1.727v-6.621a.864.864,0,0,0-1.727,0v7.485a.864.864,0,0,0,.864.864H18.136a.864.864,0,0,0,.864-.864v-7.485A.864.864,0,0,0,18.136,160Z" transform="translate(0 -141.364)"/>
  </g>
</svg>
